<svg width="115" height="28" viewBox="0 0 115 28" fill="none" xmlns="http://www.w3.org/2000/svg">
<path d="M31.1777 20.8157V7.81558H41.53V10.5827H34.3802V13.0157H39.1468V15.69H34.3802V20.8157H31.1777Z" fill="white"/>
<path d="M41.0552 15.9129C41.0552 15.2072 41.1918 14.5448 41.4649 13.9257C41.7504 13.2943 42.1289 12.7494 42.6006 12.2913C43.0847 11.8332 43.6495 11.4742 44.295 11.2142C44.9529 10.9418 45.6542 10.8057 46.399 10.8057C47.1437 10.8057 47.8388 10.9418 48.4843 11.2142C49.1422 11.4742 49.707 11.8332 50.1787 12.2913C50.6628 12.7494 51.0414 13.2943 51.3144 13.9257C51.5999 14.5448 51.7427 15.2072 51.7427 15.9129C51.7427 16.6186 51.5999 17.2872 51.3144 17.9186C51.0414 18.5377 50.6628 19.0763 50.1787 19.5344C49.707 19.9925 49.1422 20.3516 48.4843 20.6116C47.8388 20.8716 47.1437 21.0015 46.399 21.0015C45.6542 21.0015 44.9529 20.8716 44.295 20.6116C43.6495 20.3516 43.0847 19.9925 42.6006 19.5344C42.1289 19.0763 41.7504 18.5377 41.4649 17.9186C41.1918 17.2872 41.0552 16.6186 41.0552 15.9129ZM46.399 18.4015C47.0693 18.4015 47.634 18.1601 48.0933 17.6772C48.565 17.1944 48.8008 16.6062 48.8008 15.9129C48.8008 15.2072 48.565 14.6128 48.0933 14.1299C47.634 13.6471 47.0693 13.4057 46.399 13.4057C45.7287 13.4057 45.1577 13.6471 44.686 14.1299C44.2267 14.6128 43.9971 15.2072 43.9971 15.9129C43.9971 16.6062 44.2267 17.1944 44.686 17.6772C45.1577 18.1601 45.7287 18.4015 46.399 18.4015Z" fill="white"/>
<path d="M53.1573 20.8157V10.9914H56.1736V11.9756C56.4964 11.5918 56.8749 11.2947 57.3094 11.0842C57.7438 10.8737 58.2279 10.7685 58.7617 10.7685C59.0472 10.7809 59.2768 10.8057 59.4506 10.8428C59.6244 10.8676 59.7733 10.9233 59.8975 11.01V13.6286C59.6989 13.5419 59.4754 13.4738 59.2272 13.4243C58.9789 13.3624 58.7245 13.3315 58.4638 13.3315C57.9921 13.3315 57.5514 13.4428 57.1418 13.6656C56.7446 13.8885 56.4219 14.192 56.1736 14.5758V20.8157H53.1573Z" fill="white"/>
<path d="M61.1941 20.8157V10.9914H64.2104V11.6229C64.558 11.3505 64.9366 11.1462 65.3462 11.01C65.7682 10.8738 66.2089 10.8057 66.6682 10.8057C67.2764 10.8057 67.8288 10.9295 68.3253 11.1772C68.8342 11.4124 69.2562 11.7404 69.5914 12.1614C69.9886 11.728 70.4603 11.3938 71.0065 11.1586C71.5526 10.9233 72.1484 10.8057 72.7939 10.8057C73.9111 10.8057 74.8234 11.1771 75.5309 11.92C76.2509 12.6629 76.6108 13.6099 76.6108 14.7614V20.8157H73.5945V15.17C73.5945 14.6377 73.4456 14.2105 73.1477 13.8886C72.8622 13.5543 72.4774 13.3871 71.9933 13.3871C71.6581 13.3871 71.354 13.4552 71.0809 13.5914C70.8079 13.7152 70.572 13.8947 70.3734 14.1299C70.3858 14.229 70.392 14.3342 70.392 14.4456C70.4044 14.5447 70.4106 14.6499 70.4106 14.7614V20.8157H67.3943V15.17C67.3943 14.6377 67.2454 14.2105 66.9475 13.8886C66.662 13.5543 66.2772 13.3871 65.7931 13.3871C65.4579 13.3871 65.1538 13.449 64.8807 13.5728C64.6201 13.6843 64.3966 13.8576 64.2104 14.0929V20.8157H61.1941Z" fill="white"/>
<path d="M97.9127 17.8615C98.3832 17.8615 98.7856 18.0349 99.1199 18.3815C99.4665 18.7158 99.6399 19.1182 99.6399 19.5887C99.6399 20.0592 99.4665 20.4677 99.1199 20.8144C98.7856 21.1487 98.3832 21.3159 97.9127 21.3159C97.4422 21.3159 97.0337 21.1487 96.687 20.8144C96.3527 20.4677 96.1855 20.0592 96.1855 19.5887C96.1855 19.1182 96.3527 18.7158 96.687 18.3815C97.0337 18.0349 97.4422 17.8615 97.9127 17.8615Z" fill="white"/>
<path d="M104.372 21.2787C103.332 21.2787 102.478 20.9939 101.809 20.4244C101.141 19.8549 100.806 19.1244 100.806 18.233C100.806 17.3044 101.159 16.5801 101.865 16.0601C102.583 15.5401 103.58 15.2801 104.855 15.2801C105.239 15.2801 105.616 15.3048 105.988 15.3543C106.359 15.4039 106.725 15.472 107.084 15.5586V15.0758C107.084 14.5805 106.923 14.2153 106.601 13.98C106.291 13.7324 105.827 13.6086 105.208 13.6086C104.824 13.6086 104.391 13.6705 103.908 13.7943C103.425 13.9181 102.868 14.1162 102.236 14.3886L101.159 12.1786C101.952 11.8195 102.725 11.5533 103.481 11.38C104.248 11.1943 105.004 11.1014 105.746 11.1014C107.108 11.1014 108.167 11.4295 108.922 12.0857C109.677 12.7295 110.055 13.6396 110.055 14.8158V21.1116H107.084V20.5173C106.687 20.7897 106.266 20.9877 105.821 21.1116C105.387 21.223 104.905 21.2787 104.372 21.2787ZM103.666 18.1772C103.666 18.4868 103.803 18.7282 104.075 18.9015C104.347 19.0749 104.725 19.1615 105.208 19.1615C105.567 19.1615 105.901 19.1244 106.211 19.0501C106.533 18.9758 106.824 18.8582 107.084 18.6972V17.4344C106.799 17.3601 106.508 17.3044 106.211 17.2672C105.914 17.2301 105.61 17.2115 105.301 17.2115C104.781 17.2115 104.378 17.2982 104.094 17.4715C103.809 17.6325 103.666 17.8677 103.666 18.1772Z" fill="white"/>
<path d="M113.348 10.3771C112.89 10.3771 112.5 10.2162 112.178 9.89427C111.856 9.57237 111.695 9.18236 111.695 8.72426C111.695 8.26616 111.856 7.87615 112.178 7.55424C112.5 7.23234 112.89 7.07138 113.348 7.07138C113.806 7.07138 114.196 7.23234 114.518 7.55424C114.84 7.87615 115.001 8.26616 115.001 8.72426C115.001 9.18236 114.84 9.57237 114.518 9.89427C114.196 10.2162 113.806 10.3771 113.348 10.3771ZM114.852 11.2871V21.1116H111.843V11.2871H114.852Z" fill="white"/>
<rect x="78.998" y="7.95993" width="3.05396" height="6.30025" rx="1.52698" transform="rotate(-45 78.998 7.95993)" fill="white"/>
<rect x="88.3027" y="17.2653" width="3.05396" height="6.30024" rx="1.52698" transform="rotate(-45 88.3027 17.2653)" fill="white"/>
<rect x="92.7578" y="5.80042" width="3.05396" height="6.30024" rx="1.52698" transform="rotate(45 92.7578 5.80042)" fill="white"/>
<rect x="83.4531" y="15.1059" width="3.05396" height="6.30025" rx="1.52698" transform="rotate(45 83.4531 15.1059)" fill="white"/>
<rect width="3.52087" height="3.52087" rx="1.76044" transform="matrix(0.707106 0.707108 -0.707106 0.707108 86.9512 11.265)" fill="white"/>
<path fill-rule="evenodd" clip-rule="evenodd" d="M12.0135 2.28278H0V26.3099H12.0135C18.6484 26.3099 24.0271 20.9312 24.0271 14.2963C24.0271 7.66142 18.6484 2.28278 12.0135 2.28278ZM4.99141 8.56123C4.48443 9.06821 4.48443 9.8902 4.99141 10.3972L6.943 12.3488C7.44998 12.8558 8.27197 12.8558 8.77896 12.3488C9.28594 11.8418 9.28595 11.0198 8.77896 10.5128L6.82738 8.56123C6.32039 8.05424 5.4984 8.05424 4.99141 8.56123ZM12.9028 18.3085C12.3958 17.8015 12.3958 16.9795 12.9028 16.4725C13.4098 15.9655 14.2318 15.9655 14.7388 16.4725L16.6904 18.4241C17.1974 18.9311 17.1974 19.7531 16.6904 20.26C16.1834 20.767 15.3614 20.767 14.8544 20.26L12.9028 18.3085ZM16.6903 8.5614C16.1833 8.05441 15.3613 8.05441 14.8544 8.5614L12.9028 10.513C12.3958 11.02 12.3958 11.842 12.9028 12.3489C13.4098 12.8559 14.2317 12.8559 14.7387 12.3489L16.6903 10.3974C17.1973 9.89037 17.1973 9.06838 16.6903 8.5614ZM6.94301 16.4728C7.45 15.9658 8.27199 15.9658 8.77897 16.4728C9.28596 16.9798 9.28596 17.8017 8.77897 18.3087L6.82739 20.2603C6.3204 20.7673 5.49841 20.7673 4.99143 20.2603C4.48444 19.7533 4.48444 18.9313 4.99143 18.4244L6.94301 16.4728ZM11.8943 13.3476C11.3098 12.7631 10.3622 12.7631 9.77767 13.3476C9.19317 13.9321 9.19317 14.8798 9.77767 15.4643C10.3622 16.0488 11.3098 16.0488 11.8943 15.4643C12.4788 14.8798 12.4788 13.9321 11.8943 13.3476Z" fill="white"/>
</svg>
