<svg width="127" height="25" viewBox="0 0 127 25" fill="none" xmlns="http://www.w3.org/2000/svg">
<path d="M34.7148 19.8491V5.36633H46.2351V8.44907H38.2787V11.1595H43.583V14.1387H38.2787V19.8491H34.7148Z" fill="black"/>
<path d="M45.7067 14.3871C45.7067 13.6009 45.8587 12.863 46.1626 12.1733C46.4803 11.4699 46.9016 10.8629 47.4265 10.3525C47.9652 9.84218 48.5937 9.44219 49.312 9.15253C50.0441 8.84909 50.8245 8.69742 51.6533 8.69742C52.4821 8.69742 53.2557 8.84909 53.974 9.15253C54.7061 9.44219 55.3346 9.84218 55.8595 10.3525C56.3982 10.8629 56.8195 11.4699 57.1234 12.1733C57.4411 12.863 57.5999 13.6009 57.5999 14.3871C57.5999 15.1733 57.4411 15.9181 57.1234 16.6216C56.8195 17.3112 56.3982 17.9113 55.8595 18.4216C55.3346 18.932 54.7061 19.332 53.974 19.6216C53.2557 19.9113 52.4821 20.056 51.6533 20.056C50.8245 20.056 50.0441 19.9113 49.312 19.6216C48.5937 19.332 47.9652 18.932 47.4265 18.4216C46.9016 17.9113 46.4803 17.3112 46.1626 16.6216C45.8587 15.9181 45.7067 15.1733 45.7067 14.3871ZM51.6533 17.1595C52.3993 17.1595 53.0278 16.8906 53.5389 16.3527C54.0638 15.8147 54.3262 15.1595 54.3262 14.3871C54.3262 13.6009 54.0638 12.9387 53.5389 12.4008C53.0278 11.8629 52.3993 11.5939 51.6533 11.5939C50.9074 11.5939 50.272 11.8629 49.7471 12.4008C49.236 12.9387 48.9805 13.6009 48.9805 14.3871C48.9805 15.1595 49.236 15.8147 49.7471 16.3527C50.272 16.8906 50.9074 17.1595 51.6533 17.1595Z" fill="black"/>
<path d="M59.1742 19.8491V8.90435H62.5308V10.0008C62.8899 9.57321 63.3112 9.24222 63.7947 9.00773C64.2782 8.77325 64.8169 8.656 65.4109 8.656C65.7286 8.66979 65.9841 8.69746 66.1775 8.73884C66.3709 8.76643 66.5366 8.82851 66.6748 8.92506V11.8423C66.4538 11.7457 66.2051 11.6698 65.9289 11.6146C65.6526 11.5457 65.3694 11.5113 65.0793 11.5113C64.5544 11.5113 64.0641 11.6353 63.6082 11.8835C63.1662 12.1318 62.8071 12.4699 62.5308 12.8975V19.8491H59.1742Z" fill="black"/>
<path d="M68.1177 19.8491V8.90435H71.4743V9.60781C71.8611 9.30437 72.2824 9.07679 72.7382 8.92506C73.2079 8.77334 73.6983 8.69742 74.2094 8.69742C74.8862 8.69742 75.5009 8.83542 76.0534 9.11128C76.6198 9.37335 77.0894 9.73876 77.4624 10.2077C77.9044 9.72497 78.4293 9.35264 79.0371 9.09057C79.6449 8.8285 80.3079 8.69742 81.0262 8.69742C82.2694 8.69742 83.2847 9.11125 84.072 9.93883C84.8732 10.7664 85.2738 11.8215 85.2738 13.1042V19.8491H81.9171V13.5595C81.9171 12.9664 81.7514 12.4905 81.4199 12.1319C81.1022 11.7595 80.674 11.5732 80.1352 11.5732C79.7623 11.5732 79.4239 11.6491 79.12 11.8009C78.8161 11.9388 78.5536 12.1387 78.3326 12.4008C78.3464 12.5111 78.3533 12.6284 78.3533 12.7525C78.3671 12.8629 78.374 12.9801 78.374 13.1042V19.8491H75.0174V13.5595C75.0174 12.9664 74.8517 12.4905 74.5202 12.1319C74.2024 11.7595 73.7742 11.5732 73.2355 11.5732C72.8626 11.5732 72.5241 11.6422 72.2202 11.7802C71.9302 11.9043 71.6815 12.0975 71.4743 12.3595V19.8491H68.1177Z" fill="black"/>
<path d="M107.257 16.558C107.781 16.558 108.228 16.7511 108.6 17.1374C108.986 17.5098 109.179 17.958 109.179 18.4822C109.179 19.0063 108.986 19.4615 108.6 19.8477C108.228 20.2201 107.781 20.4063 107.257 20.4063C106.733 20.4063 106.279 20.2201 105.893 19.8477C105.521 19.4615 105.335 19.0063 105.335 18.4822C105.335 17.958 105.521 17.5098 105.893 17.1374C106.279 16.7511 106.733 16.558 107.257 16.558Z" fill="black"/>
<path d="M114.445 20.3649C113.288 20.3649 112.337 20.0477 111.593 19.4132C110.849 18.7787 110.477 17.9649 110.477 16.9718C110.477 15.9374 110.87 15.1305 111.655 14.5511C112.454 13.9718 113.563 13.6822 114.983 13.6822C115.41 13.6822 115.83 13.7098 116.243 13.7649C116.657 13.8201 117.063 13.896 117.463 13.9925V13.4546C117.463 12.9029 117.283 12.496 116.925 12.2339C116.581 11.958 116.064 11.8201 115.375 11.8201C114.948 11.8201 114.466 11.8891 113.929 12.027C113.391 12.1649 112.771 12.3856 112.069 12.6891L110.87 10.227C111.752 9.82701 112.613 9.53046 113.453 9.33735C114.307 9.13046 115.148 9.02701 115.975 9.02701C117.49 9.02701 118.668 9.39253 119.509 10.1236C120.349 10.8408 120.769 11.8546 120.769 13.1649V20.1787H117.463V19.5167C117.022 19.8201 116.553 20.0408 116.057 20.1787C115.575 20.3029 115.038 20.3649 114.445 20.3649ZM113.66 16.9098C113.66 17.2546 113.811 17.5236 114.115 17.7167C114.418 17.9098 114.838 18.0063 115.375 18.0063C115.775 18.0063 116.147 17.9649 116.491 17.8822C116.849 17.7994 117.173 17.6684 117.463 17.4891V16.0822C117.146 15.9994 116.822 15.9374 116.491 15.896C116.161 15.8546 115.823 15.8339 115.479 15.8339C114.9 15.8339 114.452 15.9305 114.135 16.1236C113.818 16.3029 113.66 16.5649 113.66 16.9098Z" fill="black"/>
<path d="M124.433 8.22011C123.924 8.22011 123.49 8.0408 123.131 7.68218C122.773 7.32356 122.594 6.88908 122.594 6.37873C122.594 5.86839 122.773 5.43391 123.131 5.07529C123.49 4.71666 123.924 4.53735 124.433 4.53735C124.943 4.53735 125.377 4.71666 125.735 5.07529C126.094 5.43391 126.273 5.86839 126.273 6.37873C126.273 6.88908 126.094 7.32356 125.735 7.68218C125.377 8.0408 124.943 8.22011 124.433 8.22011ZM126.107 9.23391V20.1787H122.759V9.23391H126.107Z" fill="black"/>
<path d="M91.7477 19.7199H87.7441L93.1296 12.3754L87.988 5.47852H92.1541L95.2025 9.77128L98.2509 5.47852H102.254L97.1941 12.3754L102.681 19.7199H98.5151L95.1212 14.9592L91.7477 19.7199Z" fill="black"/>
<path d="M1.79519 1.79519H12.4725C18.3846 1.79519 23.1774 6.5879 23.1774 12.5C23.1774 18.4121 18.3847 23.2048 12.4726 23.2048H1.79519V1.79519Z" fill="#25D0B1" stroke="#25D0B1" stroke-width="3.59039"/>
<rect width="2.70009" height="5.57023" rx="1.35005" transform="matrix(0.706718 -0.707495 0.706718 0.707495 4.23242 7.48795)" fill="white"/>
<rect width="2.7001" height="5.57023" rx="1.35005" transform="matrix(0.706718 -0.707495 0.706718 0.707495 12.4561 15.7196)" fill="white"/>
<rect width="2.7001" height="5.57023" rx="1.35005" transform="matrix(0.706718 0.707495 -0.706718 0.707495 16.3945 5.57776)" fill="white"/>
<rect width="2.7001" height="5.57023" rx="1.35005" transform="matrix(0.706718 0.707495 -0.706718 0.707495 8.16992 13.8095)" fill="white"/>
<rect width="3.11291" height="3.11291" rx="1.55645" transform="matrix(0.706718 0.707495 -0.706718 0.707495 11.2617 10.4117)" fill="white"/>
</svg>
