<svg width="500" height="205" viewBox="0 0 500 205" fill="none" xmlns="http://www.w3.org/2000/svg">
<path d="M31.8047 142H30.5234V132.32C30.4245 132.419 30.2786 132.534 30.0859 132.664C29.8984 132.789 29.6849 132.914 29.4453 133.039C29.2109 133.164 28.9609 133.281 28.6953 133.391C28.4349 133.5 28.1797 133.586 27.9297 133.648V132.352C28.2109 132.273 28.5078 132.169 28.8203 132.039C29.138 131.904 29.4479 131.755 29.75 131.594C30.0573 131.427 30.3464 131.255 30.6172 131.078C30.888 130.896 31.1224 130.719 31.3203 130.547H31.8047V142ZM36.5156 142.172C36.276 142.172 36.0703 142.086 35.8984 141.914C35.7318 141.742 35.6484 141.536 35.6484 141.297C35.6484 141.057 35.7318 140.852 35.8984 140.68C36.0703 140.503 36.276 140.414 36.5156 140.414C36.7604 140.414 36.9688 140.503 37.1406 140.68C37.3125 140.852 37.3984 141.057 37.3984 141.297C37.3984 141.536 37.3125 141.742 37.1406 141.914C36.9688 142.086 36.7604 142.172 36.5156 142.172ZM52.2969 137.469C52.2969 140.615 50.8776 142.188 48.0391 142.188C45.3203 142.188 43.9609 140.674 43.9609 137.648V130.797H45.2734V137.562C45.2734 139.859 46.2422 141.008 48.1797 141.008C50.0495 141.008 50.9844 139.898 50.9844 137.68V130.797H52.2969V137.469ZM56.2422 140.844H56.2109V145.68H54.9297V134H56.2109V135.406H56.2422C56.8724 134.344 57.7943 133.812 59.0078 133.812C60.0391 133.812 60.8438 134.172 61.4219 134.891C62 135.604 62.2891 136.562 62.2891 137.766C62.2891 139.104 61.9635 140.177 61.3125 140.984C60.6615 141.786 59.7708 142.188 58.6406 142.188C57.6042 142.188 56.8047 141.74 56.2422 140.844ZM56.2109 137.617V138.734C56.2109 139.396 56.4245 139.958 56.8516 140.422C57.2839 140.88 57.8307 141.109 58.4922 141.109C59.2682 141.109 59.875 140.812 60.3125 140.219C60.7552 139.625 60.9766 138.799 60.9766 137.742C60.9766 136.852 60.7708 136.154 60.3594 135.648C59.9479 135.143 59.3906 134.891 58.6875 134.891C57.9427 134.891 57.3438 135.151 56.8906 135.672C56.4375 136.188 56.2109 136.836 56.2109 137.617ZM65.6172 142H64.3359V130.156H65.6172V142ZM71.5547 142.188C70.3724 142.188 69.4271 141.815 68.7188 141.07C68.0156 140.32 67.6641 139.328 67.6641 138.094C67.6641 136.75 68.0312 135.701 68.7656 134.945C69.5 134.19 70.4922 133.812 71.7422 133.812C72.9349 133.812 73.8646 134.18 74.5312 134.914C75.2031 135.648 75.5391 136.667 75.5391 137.969C75.5391 139.245 75.1771 140.268 74.4531 141.039C73.7344 141.805 72.7682 142.188 71.5547 142.188ZM71.6484 134.891C70.8255 134.891 70.1745 135.172 69.6953 135.734C69.2161 136.292 68.9766 137.062 68.9766 138.047C68.9766 138.995 69.2188 139.742 69.7031 140.289C70.1875 140.836 70.8359 141.109 71.6484 141.109C72.4766 141.109 73.112 140.841 73.5547 140.305C74.0026 139.768 74.2266 139.005 74.2266 138.016C74.2266 137.016 74.0026 136.245 73.5547 135.703C73.112 135.161 72.4766 134.891 71.6484 134.891ZM83.3125 142H82.0312V140.75H82C81.4427 141.708 80.6224 142.188 79.5391 142.188C78.7422 142.188 78.1172 141.977 77.6641 141.555C77.2161 141.133 76.9922 140.573 76.9922 139.875C76.9922 138.38 77.8724 137.51 79.6328 137.266L82.0312 136.93C82.0312 135.57 81.4818 134.891 80.3828 134.891C79.4193 134.891 78.5495 135.219 77.7734 135.875V134.562C78.5599 134.062 79.4661 133.812 80.4922 133.812C82.3724 133.812 83.3125 134.807 83.3125 136.797V142ZM82.0312 137.953L80.1016 138.219C79.5078 138.302 79.0599 138.451 78.7578 138.664C78.4557 138.872 78.3047 139.245 78.3047 139.781C78.3047 140.172 78.4427 140.492 78.7188 140.742C79 140.987 79.3724 141.109 79.8359 141.109C80.4714 141.109 80.9948 140.888 81.4062 140.445C81.8229 139.997 82.0312 139.432 82.0312 138.75V137.953ZM92.5547 142H91.2734V140.641H91.2422C90.6484 141.672 89.7318 142.188 88.4922 142.188C87.487 142.188 86.6823 141.831 86.0781 141.117C85.4792 140.398 85.1797 139.422 85.1797 138.188C85.1797 136.865 85.513 135.805 86.1797 135.008C86.8464 134.211 87.7344 133.812 88.8438 133.812C89.9427 133.812 90.7422 134.245 91.2422 135.109H91.2734V130.156H92.5547V142ZM91.2734 138.383V137.203C91.2734 136.557 91.0599 136.01 90.6328 135.562C90.2057 135.115 89.6641 134.891 89.0078 134.891C88.2266 134.891 87.612 135.177 87.1641 135.75C86.7161 136.323 86.4922 137.115 86.4922 138.125C86.4922 139.047 86.7057 139.776 87.1328 140.312C87.5651 140.844 88.1432 141.109 88.8672 141.109C89.5807 141.109 90.1589 140.852 90.6016 140.336C91.0495 139.82 91.2734 139.169 91.2734 138.383Z" fill="#00BD9B"/>
<path d="M218.102 133.734C218.102 133.391 218.047 133.091 217.938 132.836C217.833 132.581 217.688 132.37 217.5 132.203C217.318 132.031 217.102 131.904 216.852 131.82C216.602 131.737 216.331 131.695 216.039 131.695C215.789 131.695 215.544 131.729 215.305 131.797C215.065 131.865 214.831 131.958 214.602 132.078C214.378 132.198 214.159 132.341 213.945 132.508C213.737 132.674 213.542 132.859 213.359 133.062V131.688C213.719 131.339 214.12 131.073 214.562 130.891C215.01 130.703 215.555 130.609 216.195 130.609C216.654 130.609 217.078 130.677 217.469 130.812C217.859 130.943 218.198 131.135 218.484 131.391C218.771 131.646 218.995 131.961 219.156 132.336C219.323 132.711 219.406 133.141 219.406 133.625C219.406 134.068 219.354 134.469 219.25 134.828C219.151 135.188 218.997 135.526 218.789 135.844C218.586 136.161 218.328 136.466 218.016 136.758C217.703 137.049 217.336 137.346 216.914 137.648C216.388 138.023 215.953 138.344 215.609 138.609C215.271 138.875 215 139.125 214.797 139.359C214.599 139.589 214.458 139.82 214.375 140.055C214.297 140.284 214.258 140.549 214.258 140.852H219.836V142H212.922V141.445C212.922 140.966 212.974 140.544 213.078 140.18C213.182 139.815 213.354 139.469 213.594 139.141C213.833 138.812 214.146 138.484 214.531 138.156C214.922 137.828 215.398 137.458 215.961 137.047C216.367 136.755 216.706 136.477 216.977 136.211C217.253 135.945 217.474 135.68 217.641 135.414C217.807 135.148 217.924 134.88 217.992 134.609C218.065 134.333 218.102 134.042 218.102 133.734ZM222.438 142.172C222.198 142.172 221.992 142.086 221.82 141.914C221.654 141.742 221.57 141.536 221.57 141.297C221.57 141.057 221.654 140.852 221.82 140.68C221.992 140.503 222.198 140.414 222.438 140.414C222.682 140.414 222.891 140.503 223.062 140.68C223.234 140.852 223.32 141.057 223.32 141.297C223.32 141.536 223.234 141.742 223.062 141.914C222.891 142.086 222.682 142.172 222.438 142.172ZM235.961 142H230.023V130.797H235.711V131.984H231.336V135.711H235.383V136.891H231.336V140.812H235.961V142ZM243.789 134L241.102 138.047L243.742 142H242.25L240.68 139.406C240.581 139.245 240.464 139.042 240.328 138.797H240.297C240.271 138.844 240.148 139.047 239.93 139.406L238.328 142H236.852L239.578 138.078L236.969 134H238.461L240.008 136.734C240.122 136.938 240.234 137.146 240.344 137.359H240.375L242.375 134H243.789ZM249 141.922C248.698 142.089 248.299 142.172 247.805 142.172C246.404 142.172 245.703 141.391 245.703 139.828V135.094H244.328V134H245.703V132.047L246.984 131.633V134H249V135.094H246.984V139.602C246.984 140.138 247.076 140.521 247.258 140.75C247.44 140.979 247.742 141.094 248.164 141.094C248.487 141.094 248.766 141.005 249 140.828V141.922ZM254.883 135.297C254.659 135.125 254.336 135.039 253.914 135.039C253.367 135.039 252.909 135.297 252.539 135.812C252.174 136.328 251.992 137.031 251.992 137.922V142H250.711V134H251.992V135.648H252.023C252.206 135.086 252.484 134.648 252.859 134.336C253.234 134.018 253.654 133.859 254.117 133.859C254.451 133.859 254.706 133.896 254.883 133.969V135.297ZM262 142H260.719V140.75H260.688C260.13 141.708 259.31 142.188 258.227 142.188C257.43 142.188 256.805 141.977 256.352 141.555C255.904 141.133 255.68 140.573 255.68 139.875C255.68 138.38 256.56 137.51 258.32 137.266L260.719 136.93C260.719 135.57 260.169 134.891 259.07 134.891C258.107 134.891 257.237 135.219 256.461 135.875V134.562C257.247 134.062 258.154 133.812 259.18 133.812C261.06 133.812 262 134.807 262 136.797V142ZM260.719 137.953L258.789 138.219C258.195 138.302 257.747 138.451 257.445 138.664C257.143 138.872 256.992 139.245 256.992 139.781C256.992 140.172 257.13 140.492 257.406 140.742C257.688 140.987 258.06 141.109 258.523 141.109C259.159 141.109 259.682 140.888 260.094 140.445C260.51 139.997 260.719 139.432 260.719 138.75V137.953ZM269.867 141.633C269.253 142.003 268.523 142.188 267.68 142.188C266.539 142.188 265.617 141.818 264.914 141.078C264.216 140.333 263.867 139.37 263.867 138.188C263.867 136.87 264.245 135.812 265 135.016C265.755 134.214 266.763 133.812 268.023 133.812C268.727 133.812 269.346 133.943 269.883 134.203V135.516C269.289 135.099 268.654 134.891 267.977 134.891C267.159 134.891 266.487 135.185 265.961 135.773C265.44 136.357 265.18 137.125 265.18 138.078C265.18 139.016 265.424 139.755 265.914 140.297C266.409 140.839 267.07 141.109 267.898 141.109C268.596 141.109 269.253 140.878 269.867 140.414V141.633ZM275.516 141.922C275.214 142.089 274.815 142.172 274.32 142.172C272.919 142.172 272.219 141.391 272.219 139.828V135.094H270.844V134H272.219V132.047L273.5 131.633V134H275.516V135.094H273.5V139.602C273.5 140.138 273.591 140.521 273.773 140.75C273.956 140.979 274.258 141.094 274.68 141.094C275.003 141.094 275.281 141.005 275.516 140.828V141.922Z" fill="#00BD9B"/>
<path d="M415.219 138.828C415.219 139.333 415.122 139.794 414.93 140.211C414.742 140.622 414.474 140.977 414.125 141.273C413.781 141.565 413.367 141.792 412.883 141.953C412.398 142.115 411.865 142.195 411.281 142.195C410.214 142.195 409.365 141.992 408.734 141.586V140.211C409.49 140.805 410.354 141.102 411.328 141.102C411.719 141.102 412.07 141.052 412.383 140.953C412.701 140.854 412.971 140.711 413.195 140.523C413.424 140.336 413.599 140.109 413.719 139.844C413.844 139.578 413.906 139.279 413.906 138.945C413.906 137.482 412.865 136.75 410.781 136.75H409.852V135.664H410.734C412.578 135.664 413.5 134.977 413.5 133.602C413.5 132.331 412.797 131.695 411.391 131.695C410.599 131.695 409.857 131.961 409.164 132.492V131.25C409.878 130.823 410.727 130.609 411.711 130.609C412.18 130.609 412.604 130.674 412.984 130.805C413.365 130.935 413.69 131.117 413.961 131.352C414.232 131.586 414.44 131.867 414.586 132.195C414.737 132.523 414.812 132.885 414.812 133.281C414.812 134.755 414.068 135.703 412.578 136.125V136.156C412.958 136.198 413.31 136.292 413.633 136.438C413.956 136.578 414.234 136.763 414.469 136.992C414.703 137.221 414.885 137.492 415.016 137.805C415.151 138.112 415.219 138.453 415.219 138.828ZM418.141 142.172C417.901 142.172 417.695 142.086 417.523 141.914C417.357 141.742 417.273 141.536 417.273 141.297C417.273 141.057 417.357 140.852 417.523 140.68C417.695 140.503 417.901 140.414 418.141 140.414C418.385 140.414 418.594 140.503 418.766 140.68C418.938 140.852 419.023 141.057 419.023 141.297C419.023 141.536 418.938 141.742 418.766 141.914C418.594 142.086 418.385 142.172 418.141 142.172ZM433.758 142H432.195L430.32 138.859C430.148 138.568 429.982 138.32 429.82 138.117C429.659 137.909 429.492 137.74 429.32 137.609C429.154 137.479 428.971 137.385 428.773 137.328C428.581 137.266 428.362 137.234 428.117 137.234H427.039V142H425.727V130.797H429.07C429.56 130.797 430.01 130.859 430.422 130.984C430.839 131.104 431.198 131.289 431.5 131.539C431.807 131.789 432.047 132.102 432.219 132.477C432.391 132.846 432.477 133.281 432.477 133.781C432.477 134.172 432.417 134.531 432.297 134.859C432.182 135.182 432.016 135.471 431.797 135.727C431.583 135.982 431.323 136.201 431.016 136.383C430.714 136.56 430.372 136.698 429.992 136.797V136.828C430.18 136.911 430.341 137.008 430.477 137.117C430.617 137.221 430.75 137.346 430.875 137.492C431 137.638 431.122 137.805 431.242 137.992C431.367 138.174 431.505 138.388 431.656 138.633L433.758 142ZM427.039 131.984V136.047H428.82C429.148 136.047 429.451 135.997 429.727 135.898C430.008 135.799 430.25 135.659 430.453 135.477C430.656 135.289 430.815 135.062 430.93 134.797C431.044 134.526 431.102 134.224 431.102 133.891C431.102 133.292 430.906 132.826 430.516 132.492C430.13 132.154 429.57 131.984 428.836 131.984H427.039ZM441.094 138.32H435.445C435.466 139.211 435.706 139.898 436.164 140.383C436.622 140.867 437.253 141.109 438.055 141.109C438.956 141.109 439.784 140.812 440.539 140.219V141.422C439.836 141.932 438.906 142.188 437.75 142.188C436.62 142.188 435.732 141.826 435.086 141.102C434.44 140.372 434.117 139.349 434.117 138.031C434.117 136.786 434.469 135.773 435.172 134.992C435.88 134.206 436.758 133.812 437.805 133.812C438.852 133.812 439.661 134.151 440.234 134.828C440.807 135.505 441.094 136.445 441.094 137.648V138.32ZM439.781 137.234C439.776 136.495 439.596 135.919 439.242 135.508C438.893 135.096 438.406 134.891 437.781 134.891C437.177 134.891 436.664 135.107 436.242 135.539C435.82 135.971 435.56 136.536 435.461 137.234H439.781ZM449.328 134L446.141 142H444.883L441.852 134H443.258L445.289 139.812C445.44 140.24 445.534 140.612 445.57 140.93H445.602C445.654 140.529 445.737 140.167 445.852 139.844L447.977 134H449.328ZM451.367 131.969C451.138 131.969 450.943 131.891 450.781 131.734C450.62 131.578 450.539 131.38 450.539 131.141C450.539 130.901 450.62 130.703 450.781 130.547C450.943 130.385 451.138 130.305 451.367 130.305C451.602 130.305 451.799 130.385 451.961 130.547C452.128 130.703 452.211 130.901 452.211 131.141C452.211 131.37 452.128 131.565 451.961 131.727C451.799 131.888 451.602 131.969 451.367 131.969ZM451.992 142H450.711V134H451.992V142ZM461.016 138.32H455.367C455.388 139.211 455.628 139.898 456.086 140.383C456.544 140.867 457.174 141.109 457.977 141.109C458.878 141.109 459.706 140.812 460.461 140.219V141.422C459.758 141.932 458.828 142.188 457.672 142.188C456.542 142.188 455.654 141.826 455.008 141.102C454.362 140.372 454.039 139.349 454.039 138.031C454.039 136.786 454.391 135.773 455.094 134.992C455.802 134.206 456.68 133.812 457.727 133.812C458.773 133.812 459.583 134.151 460.156 134.828C460.729 135.505 461.016 136.445 461.016 137.648V138.32ZM459.703 137.234C459.698 136.495 459.518 135.919 459.164 135.508C458.815 135.096 458.328 134.891 457.703 134.891C457.099 134.891 456.586 135.107 456.164 135.539C455.742 135.971 455.482 136.536 455.383 137.234H459.703ZM473.039 134L470.641 142H469.312L467.664 136.273C467.602 136.055 467.56 135.807 467.539 135.531H467.508C467.492 135.719 467.438 135.961 467.344 136.258L465.555 142H464.273L461.852 134H463.195L464.852 140.016C464.904 140.198 464.94 140.438 464.961 140.734H465.023C465.039 140.505 465.086 140.26 465.164 140L467.008 134H468.18L469.836 140.031C469.888 140.224 469.927 140.464 469.953 140.75H470.016C470.026 140.547 470.07 140.307 470.148 140.031L471.773 134H473.039Z" fill="#00BD9B"/>
<path d="M110 138H196" stroke="#00BD9B"/>
<path d="M292 138H391.5" stroke="#00BD9B"/>
<path d="M147.051 175.035C147.051 177.788 145.809 179.164 143.325 179.164C140.946 179.164 139.757 177.84 139.757 175.192V169.197H140.905V175.117C140.905 177.127 141.753 178.132 143.448 178.132C145.084 178.132 145.902 177.161 145.902 175.22V169.197H147.051V175.035ZM150.503 177.988H150.476V182.22H149.354V172H150.476V173.23H150.503C151.054 172.301 151.861 171.836 152.923 171.836C153.825 171.836 154.529 172.15 155.035 172.779C155.541 173.404 155.794 174.242 155.794 175.295C155.794 176.466 155.509 177.405 154.939 178.111C154.37 178.813 153.59 179.164 152.602 179.164C151.695 179.164 150.995 178.772 150.503 177.988ZM150.476 175.165V176.143C150.476 176.721 150.662 177.214 151.036 177.619C151.414 178.02 151.893 178.221 152.472 178.221C153.151 178.221 153.682 177.961 154.064 177.441C154.452 176.922 154.646 176.2 154.646 175.274C154.646 174.495 154.465 173.884 154.105 173.442C153.745 173 153.258 172.779 152.643 172.779C151.991 172.779 151.467 173.007 151.07 173.463C150.674 173.914 150.476 174.481 150.476 175.165ZM158.706 179H157.585V168.637H158.706V179ZM163.901 179.164C162.867 179.164 162.04 178.838 161.42 178.187C160.805 177.53 160.497 176.662 160.497 175.582C160.497 174.406 160.818 173.488 161.461 172.827C162.104 172.166 162.972 171.836 164.065 171.836C165.109 171.836 165.923 172.157 166.506 172.8C167.094 173.442 167.388 174.333 167.388 175.473C167.388 176.589 167.071 177.485 166.438 178.159C165.809 178.829 164.963 179.164 163.901 179.164ZM163.983 172.779C163.263 172.779 162.694 173.025 162.274 173.518C161.855 174.005 161.646 174.68 161.646 175.541C161.646 176.37 161.857 177.024 162.281 177.503C162.705 177.981 163.272 178.221 163.983 178.221C164.708 178.221 165.264 177.986 165.651 177.517C166.043 177.047 166.239 176.38 166.239 175.514C166.239 174.639 166.043 173.964 165.651 173.49C165.264 173.016 164.708 172.779 163.983 172.779ZM174.189 179H173.068V177.906H173.041C172.553 178.745 171.836 179.164 170.888 179.164C170.19 179.164 169.644 178.979 169.247 178.61C168.855 178.241 168.659 177.751 168.659 177.141C168.659 175.833 169.429 175.072 170.97 174.857L173.068 174.563C173.068 173.374 172.588 172.779 171.626 172.779C170.783 172.779 170.022 173.066 169.343 173.641V172.492C170.031 172.055 170.824 171.836 171.722 171.836C173.367 171.836 174.189 172.706 174.189 174.447V179ZM173.068 175.459L171.38 175.691C170.86 175.764 170.468 175.894 170.204 176.081C169.94 176.263 169.808 176.589 169.808 177.059C169.808 177.4 169.928 177.681 170.17 177.899C170.416 178.114 170.742 178.221 171.147 178.221C171.703 178.221 172.161 178.027 172.521 177.64C172.886 177.248 173.068 176.753 173.068 176.156V175.459ZM182.276 179H181.155V177.811H181.128C180.608 178.713 179.806 179.164 178.722 179.164C177.842 179.164 177.138 178.852 176.609 178.228C176.085 177.599 175.823 176.744 175.823 175.664C175.823 174.507 176.115 173.579 176.698 172.882C177.282 172.185 178.059 171.836 179.029 171.836C179.991 171.836 180.69 172.214 181.128 172.971H181.155V168.637H182.276V179ZM181.155 175.835V174.803C181.155 174.238 180.968 173.759 180.595 173.367C180.221 172.975 179.747 172.779 179.173 172.779C178.489 172.779 177.951 173.03 177.56 173.531C177.168 174.033 176.972 174.725 176.972 175.609C176.972 176.416 177.159 177.054 177.532 177.523C177.91 177.988 178.416 178.221 179.05 178.221C179.674 178.221 180.18 177.995 180.567 177.544C180.959 177.093 181.155 176.523 181.155 175.835ZM193.398 179H192.277V177.906H192.25C191.762 178.745 191.045 179.164 190.097 179.164C189.399 179.164 188.853 178.979 188.456 178.61C188.064 178.241 187.868 177.751 187.868 177.141C187.868 175.833 188.638 175.072 190.179 174.857L192.277 174.563C192.277 173.374 191.797 172.779 190.835 172.779C189.992 172.779 189.231 173.066 188.552 173.641V172.492C189.24 172.055 190.033 171.836 190.931 171.836C192.576 171.836 193.398 172.706 193.398 174.447V179ZM192.277 175.459L190.589 175.691C190.069 175.764 189.677 175.894 189.413 176.081C189.149 176.263 189.017 176.589 189.017 177.059C189.017 177.4 189.137 177.681 189.379 177.899C189.625 178.114 189.951 178.221 190.356 178.221C190.912 178.221 191.37 178.027 191.73 177.64C192.095 177.248 192.277 176.753 192.277 176.156V175.459ZM205.327 179H204.206V177.811H204.179C203.659 178.713 202.857 179.164 201.772 179.164C200.893 179.164 200.189 178.852 199.66 178.228C199.136 177.599 198.874 176.744 198.874 175.664C198.874 174.507 199.166 173.579 199.749 172.882C200.332 172.185 201.109 171.836 202.08 171.836C203.042 171.836 203.741 172.214 204.179 172.971H204.206V168.637H205.327V179ZM204.206 175.835V174.803C204.206 174.238 204.019 173.759 203.646 173.367C203.272 172.975 202.798 172.779 202.224 172.779C201.54 172.779 201.002 173.03 200.61 173.531C200.218 174.033 200.022 174.725 200.022 175.609C200.022 176.416 200.209 177.054 200.583 177.523C200.961 177.988 201.467 178.221 202.101 178.221C202.725 178.221 203.231 177.995 203.618 177.544C204.01 177.093 204.206 176.523 204.206 175.835ZM210.522 179.164C209.488 179.164 208.661 178.838 208.041 178.187C207.426 177.53 207.118 176.662 207.118 175.582C207.118 174.406 207.439 173.488 208.082 172.827C208.725 172.166 209.593 171.836 210.687 171.836C211.73 171.836 212.544 172.157 213.127 172.8C213.715 173.442 214.009 174.333 214.009 175.473C214.009 176.589 213.692 177.485 213.059 178.159C212.43 178.829 211.584 179.164 210.522 179.164ZM210.604 172.779C209.884 172.779 209.315 173.025 208.896 173.518C208.476 174.005 208.267 174.68 208.267 175.541C208.267 176.37 208.479 177.024 208.902 177.503C209.326 177.981 209.894 178.221 210.604 178.221C211.329 178.221 211.885 177.986 212.272 177.517C212.664 177.047 212.86 176.38 212.86 175.514C212.86 174.639 212.664 173.964 212.272 173.49C211.885 173.016 211.329 172.779 210.604 172.779ZM220.571 178.679C220.034 179.002 219.396 179.164 218.657 179.164C217.659 179.164 216.853 178.84 216.237 178.193C215.627 177.542 215.321 176.699 215.321 175.664C215.321 174.511 215.652 173.586 216.312 172.889C216.973 172.187 217.855 171.836 218.958 171.836C219.573 171.836 220.116 171.95 220.585 172.178V173.326C220.065 172.962 219.509 172.779 218.917 172.779C218.201 172.779 217.614 173.037 217.153 173.552C216.698 174.062 216.47 174.734 216.47 175.568C216.47 176.389 216.684 177.036 217.112 177.51C217.545 177.984 218.124 178.221 218.849 178.221C219.459 178.221 220.034 178.018 220.571 177.612V178.679ZM227.927 179H226.806V177.893H226.778C226.313 178.74 225.593 179.164 224.618 179.164C222.95 179.164 222.116 178.171 222.116 176.184V172H223.23V176.006C223.23 177.482 223.796 178.221 224.926 178.221C225.473 178.221 225.922 178.02 226.272 177.619C226.628 177.214 226.806 176.685 226.806 176.033V172H227.927V179ZM240.136 179H239.015V174.98C239.015 174.206 238.894 173.645 238.652 173.299C238.415 172.952 238.014 172.779 237.449 172.779C236.971 172.779 236.563 172.998 236.226 173.436C235.893 173.873 235.727 174.397 235.727 175.008V179H234.605V174.844C234.605 173.467 234.075 172.779 233.013 172.779C232.521 172.779 232.115 172.987 231.796 173.401C231.477 173.812 231.317 174.347 231.317 175.008V179H230.196V172H231.317V173.107H231.345C231.841 172.26 232.566 171.836 233.519 171.836C233.997 171.836 234.414 171.97 234.77 172.239C235.125 172.504 235.369 172.852 235.501 173.285C236.021 172.319 236.795 171.836 237.825 171.836C239.366 171.836 240.136 172.786 240.136 174.687V179ZM247.881 175.78H242.938C242.957 176.56 243.166 177.161 243.567 177.585C243.968 178.009 244.52 178.221 245.222 178.221C246.01 178.221 246.735 177.961 247.396 177.441V178.494C246.78 178.941 245.967 179.164 244.955 179.164C243.966 179.164 243.189 178.847 242.624 178.214C242.059 177.576 241.776 176.68 241.776 175.527C241.776 174.438 242.084 173.552 242.699 172.868C243.319 172.18 244.087 171.836 245.003 171.836C245.919 171.836 246.628 172.132 247.129 172.725C247.63 173.317 247.881 174.14 247.881 175.192V175.78ZM246.732 174.83C246.728 174.183 246.571 173.679 246.261 173.319C245.955 172.959 245.529 172.779 244.982 172.779C244.454 172.779 244.005 172.968 243.636 173.347C243.267 173.725 243.039 174.219 242.952 174.83H246.732ZM255.394 179H254.272V175.008C254.272 173.522 253.73 172.779 252.646 172.779C252.085 172.779 251.62 172.991 251.251 173.415C250.886 173.834 250.704 174.365 250.704 175.008V179H249.583V172H250.704V173.162H250.731C251.26 172.278 252.026 171.836 253.028 171.836C253.794 171.836 254.38 172.084 254.785 172.581C255.191 173.073 255.394 173.786 255.394 174.721V179ZM260.76 178.932C260.495 179.077 260.147 179.15 259.714 179.15C258.488 179.15 257.875 178.467 257.875 177.1V172.957H256.672V172H257.875V170.291L258.996 169.929V172H260.76V172.957H258.996V176.901C258.996 177.371 259.076 177.706 259.235 177.906C259.395 178.107 259.659 178.207 260.028 178.207C260.311 178.207 260.555 178.13 260.76 177.975V178.932ZM269.346 178.932C269.081 179.077 268.733 179.15 268.3 179.15C267.074 179.15 266.461 178.467 266.461 177.1V172.957H265.258V172H266.461V170.291L267.582 169.929V172H269.346V172.957H267.582V176.901C267.582 177.371 267.662 177.706 267.821 177.906C267.981 178.107 268.245 178.207 268.614 178.207C268.897 178.207 269.141 178.13 269.346 177.975V178.932ZM273.769 179.164C272.734 179.164 271.907 178.838 271.287 178.187C270.672 177.53 270.364 176.662 270.364 175.582C270.364 174.406 270.686 173.488 271.328 172.827C271.971 172.166 272.839 171.836 273.933 171.836C274.976 171.836 275.79 172.157 276.373 172.8C276.961 173.442 277.255 174.333 277.255 175.473C277.255 176.589 276.938 177.485 276.305 178.159C275.676 178.829 274.83 179.164 273.769 179.164ZM273.851 172.779C273.131 172.779 272.561 173.025 272.142 173.518C271.722 174.005 271.513 174.68 271.513 175.541C271.513 176.37 271.725 177.024 272.148 177.503C272.572 177.981 273.14 178.221 273.851 178.221C274.575 178.221 275.131 177.986 275.519 177.517C275.91 177.047 276.106 176.38 276.106 175.514C276.106 174.639 275.91 173.964 275.519 173.49C275.131 173.016 274.575 172.779 273.851 172.779ZM288.514 175.78H283.571C283.59 176.56 283.799 177.161 284.2 177.585C284.601 178.009 285.153 178.221 285.854 178.221C286.643 178.221 287.368 177.961 288.028 177.441V178.494C287.413 178.941 286.6 179.164 285.588 179.164C284.599 179.164 283.822 178.847 283.257 178.214C282.692 177.576 282.409 176.68 282.409 175.527C282.409 174.438 282.717 173.552 283.332 172.868C283.952 172.18 284.72 171.836 285.636 171.836C286.552 171.836 287.26 172.132 287.762 172.725C288.263 173.317 288.514 174.14 288.514 175.192V175.78ZM287.365 174.83C287.361 174.183 287.203 173.679 286.894 173.319C286.588 172.959 286.162 172.779 285.615 172.779C285.087 172.779 284.638 172.968 284.269 173.347C283.899 173.725 283.672 174.219 283.585 174.83H287.365ZM295.329 172L292.978 175.541L295.288 179H293.982L292.608 176.73C292.522 176.589 292.419 176.411 292.301 176.197H292.273C292.251 176.238 292.144 176.416 291.952 176.73L290.551 179H289.259L291.645 175.568L289.361 172H290.667L292.021 174.393C292.121 174.57 292.219 174.753 292.314 174.939H292.342L294.092 172H295.329ZM299.889 178.932C299.624 179.077 299.276 179.15 298.843 179.15C297.617 179.15 297.004 178.467 297.004 177.1V172.957H295.801V172H297.004V170.291L298.125 169.929V172H299.889V172.957H298.125V176.901C298.125 177.371 298.205 177.706 298.364 177.906C298.524 178.107 298.788 178.207 299.157 178.207C299.44 178.207 299.684 178.13 299.889 177.975V178.932ZM305.036 173.135C304.84 172.984 304.558 172.909 304.188 172.909C303.71 172.909 303.309 173.135 302.985 173.586C302.666 174.037 302.507 174.652 302.507 175.432V179H301.386V172H302.507V173.442H302.534C302.694 172.95 302.938 172.567 303.266 172.294C303.594 172.016 303.961 171.877 304.366 171.877C304.658 171.877 304.881 171.909 305.036 171.973V173.135ZM311.264 179H310.143V177.906H310.115C309.628 178.745 308.91 179.164 307.962 179.164C307.265 179.164 306.718 178.979 306.321 178.61C305.929 178.241 305.733 177.751 305.733 177.141C305.733 175.833 306.504 175.072 308.044 174.857L310.143 174.563C310.143 173.374 309.662 172.779 308.7 172.779C307.857 172.779 307.096 173.066 306.417 173.641V172.492C307.105 172.055 307.898 171.836 308.796 171.836C310.441 171.836 311.264 172.706 311.264 174.447V179ZM310.143 175.459L308.454 175.691C307.935 175.764 307.543 175.894 307.278 176.081C307.014 176.263 306.882 176.589 306.882 177.059C306.882 177.4 307.003 177.681 307.244 177.899C307.49 178.114 307.816 178.221 308.222 178.221C308.778 178.221 309.236 178.027 309.596 177.64C309.96 177.248 310.143 176.753 310.143 176.156V175.459ZM318.147 178.679C317.61 179.002 316.972 179.164 316.233 179.164C315.235 179.164 314.429 178.84 313.813 178.193C313.203 177.542 312.897 176.699 312.897 175.664C312.897 174.511 313.228 173.586 313.889 172.889C314.549 172.187 315.431 171.836 316.534 171.836C317.149 171.836 317.692 171.95 318.161 172.178V173.326C317.642 172.962 317.086 172.779 316.493 172.779C315.778 172.779 315.19 173.037 314.729 173.552C314.274 174.062 314.046 174.734 314.046 175.568C314.046 176.389 314.26 177.036 314.688 177.51C315.121 177.984 315.7 178.221 316.425 178.221C317.035 178.221 317.61 178.018 318.147 177.612V178.679ZM323.09 178.932C322.826 179.077 322.477 179.15 322.044 179.15C320.818 179.15 320.205 178.467 320.205 177.1V172.957H319.002V172H320.205V170.291L321.326 169.929V172H323.09V172.957H321.326V176.901C321.326 177.371 321.406 177.706 321.565 177.906C321.725 178.107 321.989 178.207 322.358 178.207C322.641 178.207 322.885 178.13 323.09 177.975V178.932ZM334.403 179H333.282V177.811H333.255C332.735 178.713 331.933 179.164 330.849 179.164C329.969 179.164 329.265 178.852 328.736 178.228C328.212 177.599 327.95 176.744 327.95 175.664C327.95 174.507 328.242 173.579 328.825 172.882C329.409 172.185 330.186 171.836 331.156 171.836C332.118 171.836 332.817 172.214 333.255 172.971H333.282V168.637H334.403V179ZM333.282 175.835V174.803C333.282 174.238 333.095 173.759 332.722 173.367C332.348 172.975 331.874 172.779 331.3 172.779C330.616 172.779 330.078 173.03 329.687 173.531C329.295 174.033 329.099 174.725 329.099 175.609C329.099 176.416 329.285 177.054 329.659 177.523C330.037 177.988 330.543 178.221 331.177 178.221C331.801 178.221 332.307 177.995 332.694 177.544C333.086 177.093 333.282 176.523 333.282 175.835ZM341.684 179H340.562V177.906H340.535C340.048 178.745 339.33 179.164 338.382 179.164C337.685 179.164 337.138 178.979 336.741 178.61C336.349 178.241 336.153 177.751 336.153 177.141C336.153 175.833 336.924 175.072 338.464 174.857L340.562 174.563C340.562 173.374 340.082 172.779 339.12 172.779C338.277 172.779 337.516 173.066 336.837 173.641V172.492C337.525 172.055 338.318 171.836 339.216 171.836C340.861 171.836 341.684 172.706 341.684 174.447V179ZM340.562 175.459L338.874 175.691C338.354 175.764 337.963 175.894 337.698 176.081C337.434 176.263 337.302 176.589 337.302 177.059C337.302 177.4 337.423 177.681 337.664 177.899C337.91 178.114 338.236 178.221 338.642 178.221C339.198 178.221 339.656 178.027 340.016 177.64C340.38 177.248 340.562 176.753 340.562 176.156V175.459ZM347.043 178.932C346.779 179.077 346.43 179.15 345.997 179.15C344.771 179.15 344.158 178.467 344.158 177.1V172.957H342.955V172H344.158V170.291L345.279 169.929V172H347.043V172.957H345.279V176.901C345.279 177.371 345.359 177.706 345.519 177.906C345.678 178.107 345.942 178.207 346.312 178.207C346.594 178.207 346.838 178.13 347.043 177.975V178.932ZM353.551 179H352.43V177.906H352.402C351.915 178.745 351.197 179.164 350.249 179.164C349.552 179.164 349.005 178.979 348.608 178.61C348.216 178.241 348.021 177.751 348.021 177.141C348.021 175.833 348.791 175.072 350.331 174.857L352.43 174.563C352.43 173.374 351.949 172.779 350.987 172.779C350.144 172.779 349.383 173.066 348.704 173.641V172.492C349.392 172.055 350.185 171.836 351.083 171.836C352.728 171.836 353.551 172.706 353.551 174.447V179ZM352.43 175.459L350.741 175.691C350.222 175.764 349.83 175.894 349.565 176.081C349.301 176.263 349.169 176.589 349.169 177.059C349.169 177.4 349.29 177.681 349.531 177.899C349.777 178.114 350.103 178.221 350.509 178.221C351.065 178.221 351.523 178.027 351.883 177.64C352.247 177.248 352.43 176.753 352.43 176.156V175.459ZM356.053 179.15C355.843 179.15 355.663 179.075 355.513 178.925C355.367 178.774 355.294 178.594 355.294 178.385C355.294 178.175 355.367 177.995 355.513 177.845C355.663 177.69 355.843 177.612 356.053 177.612C356.267 177.612 356.449 177.69 356.6 177.845C356.75 177.995 356.825 178.175 356.825 178.385C356.825 178.594 356.75 178.774 356.6 178.925C356.449 179.075 356.267 179.15 356.053 179.15ZM82.4785 200H81.1113L79.4707 197.252C79.3203 196.997 79.1745 196.78 79.0332 196.603C78.8919 196.42 78.7461 196.272 78.5957 196.158C78.4499 196.044 78.2904 195.962 78.1172 195.912C77.9486 195.857 77.7572 195.83 77.543 195.83H76.5996V200H75.4512V190.197H78.377C78.8053 190.197 79.1995 190.252 79.5596 190.361C79.9242 190.466 80.2386 190.628 80.5029 190.847C80.7718 191.065 80.9814 191.339 81.1318 191.667C81.2822 191.991 81.3574 192.371 81.3574 192.809C81.3574 193.15 81.305 193.465 81.2002 193.752C81.0999 194.035 80.9541 194.287 80.7627 194.511C80.5758 194.734 80.348 194.925 80.0791 195.085C79.8148 195.24 79.5163 195.361 79.1836 195.447V195.475C79.3477 195.548 79.4889 195.632 79.6074 195.728C79.7305 195.819 79.8467 195.928 79.9561 196.056C80.0654 196.183 80.1725 196.329 80.2773 196.493C80.3867 196.653 80.5075 196.84 80.6396 197.054L82.4785 200ZM76.5996 191.236V194.791H78.1582C78.4453 194.791 78.7096 194.748 78.9512 194.661C79.1973 194.575 79.4092 194.451 79.5869 194.292C79.7646 194.128 79.9036 193.93 80.0039 193.697C80.1042 193.46 80.1543 193.196 80.1543 192.904C80.1543 192.38 79.9834 191.972 79.6416 191.681C79.3044 191.384 78.8145 191.236 78.1719 191.236H76.5996ZM88.8975 196.78H83.9551C83.9733 197.56 84.1829 198.161 84.584 198.585C84.985 199.009 85.5365 199.221 86.2383 199.221C87.0267 199.221 87.7513 198.961 88.4121 198.441V199.494C87.7969 199.941 86.9834 200.164 85.9717 200.164C84.9827 200.164 84.2057 199.847 83.6406 199.214C83.0755 198.576 82.793 197.68 82.793 196.527C82.793 195.438 83.1006 194.552 83.7158 193.868C84.3356 193.18 85.1035 192.836 86.0195 192.836C86.9355 192.836 87.6442 193.132 88.1455 193.725C88.6468 194.317 88.8975 195.14 88.8975 196.192V196.78ZM87.749 195.83C87.7445 195.183 87.5872 194.679 87.2773 194.319C86.972 193.959 86.5459 193.779 85.999 193.779C85.4704 193.779 85.0215 193.968 84.6523 194.347C84.2832 194.725 84.0553 195.219 83.9688 195.83H87.749ZM96.1025 193L93.3135 200H92.2129L89.5605 193H90.791L92.5684 198.086C92.7005 198.46 92.7826 198.785 92.8145 199.063H92.8418C92.8874 198.713 92.9603 198.396 93.0605 198.113L94.9199 193H96.1025ZM97.8867 191.223C97.6862 191.223 97.5153 191.154 97.374 191.018C97.2327 190.881 97.1621 190.708 97.1621 190.498C97.1621 190.288 97.2327 190.115 97.374 189.979C97.5153 189.837 97.6862 189.767 97.8867 189.767C98.0918 189.767 98.265 189.837 98.4062 189.979C98.5521 190.115 98.625 190.288 98.625 190.498C98.625 190.699 98.5521 190.869 98.4062 191.011C98.265 191.152 98.0918 191.223 97.8867 191.223ZM98.4336 200H97.3125V193H98.4336V200ZM106.329 196.78H101.387C101.405 197.56 101.615 198.161 102.016 198.585C102.417 199.009 102.968 199.221 103.67 199.221C104.458 199.221 105.183 198.961 105.844 198.441V199.494C105.229 199.941 104.415 200.164 103.403 200.164C102.414 200.164 101.637 199.847 101.072 199.214C100.507 198.576 100.225 197.68 100.225 196.527C100.225 195.438 100.532 194.552 101.147 193.868C101.767 193.18 102.535 192.836 103.451 192.836C104.367 192.836 105.076 193.132 105.577 193.725C106.078 194.317 106.329 195.14 106.329 196.192V196.78ZM105.181 195.83C105.176 195.183 105.019 194.679 104.709 194.319C104.404 193.959 103.978 193.779 103.431 193.779C102.902 193.779 102.453 193.968 102.084 194.347C101.715 194.725 101.487 195.219 101.4 195.83H105.181ZM116.85 193L114.751 200H113.589L112.146 194.989C112.092 194.798 112.055 194.581 112.037 194.34H112.01C111.996 194.504 111.948 194.716 111.866 194.976L110.301 200H109.18L107.061 193H108.236L109.686 198.264C109.731 198.423 109.763 198.633 109.781 198.893H109.836C109.85 198.692 109.891 198.478 109.959 198.25L111.572 193H112.598L114.047 198.277C114.092 198.446 114.127 198.656 114.149 198.906H114.204C114.213 198.729 114.252 198.519 114.32 198.277L115.742 193H116.85ZM127.001 200H125.88V198.906H125.853C125.365 199.745 124.647 200.164 123.699 200.164C123.002 200.164 122.455 199.979 122.059 199.61C121.667 199.241 121.471 198.751 121.471 198.141C121.471 196.833 122.241 196.072 123.781 195.857L125.88 195.563C125.88 194.374 125.399 193.779 124.438 193.779C123.594 193.779 122.833 194.066 122.154 194.641V193.492C122.842 193.055 123.635 192.836 124.533 192.836C126.178 192.836 127.001 193.706 127.001 195.447V200ZM125.88 196.459L124.191 196.691C123.672 196.764 123.28 196.894 123.016 197.081C122.751 197.263 122.619 197.589 122.619 198.059C122.619 198.4 122.74 198.681 122.981 198.899C123.228 199.114 123.553 199.221 123.959 199.221C124.515 199.221 124.973 199.027 125.333 198.64C125.698 198.248 125.88 197.753 125.88 197.156V196.459ZM134.924 200H133.803V196.008C133.803 194.522 133.26 193.779 132.176 193.779C131.615 193.779 131.15 193.991 130.781 194.415C130.417 194.834 130.234 195.365 130.234 196.008V200H129.113V193H130.234V194.162H130.262C130.79 193.278 131.556 192.836 132.559 192.836C133.324 192.836 133.91 193.084 134.315 193.581C134.721 194.073 134.924 194.786 134.924 195.721V200ZM143.018 200H141.896V198.811H141.869C141.35 199.713 140.548 200.164 139.463 200.164C138.583 200.164 137.879 199.852 137.351 199.228C136.826 198.599 136.564 197.744 136.564 196.664C136.564 195.507 136.856 194.579 137.439 193.882C138.023 193.185 138.8 192.836 139.771 192.836C140.732 192.836 141.432 193.214 141.869 193.971H141.896V189.637H143.018V200ZM141.896 196.835V195.803C141.896 195.238 141.71 194.759 141.336 194.367C140.962 193.975 140.488 193.779 139.914 193.779C139.23 193.779 138.693 194.03 138.301 194.531C137.909 195.033 137.713 195.725 137.713 196.609C137.713 197.416 137.9 198.054 138.273 198.523C138.652 198.988 139.158 199.221 139.791 199.221C140.415 199.221 140.921 198.995 141.309 198.544C141.701 198.093 141.896 197.523 141.896 196.835ZM153.9 199.679C153.363 200.002 152.725 200.164 151.986 200.164C150.988 200.164 150.182 199.84 149.566 199.193C148.956 198.542 148.65 197.699 148.65 196.664C148.65 195.511 148.981 194.586 149.642 193.889C150.302 193.187 151.184 192.836 152.287 192.836C152.902 192.836 153.445 192.95 153.914 193.178V194.326C153.395 193.962 152.839 193.779 152.246 193.779C151.531 193.779 150.943 194.037 150.482 194.552C150.027 195.062 149.799 195.734 149.799 196.568C149.799 197.389 150.013 198.036 150.441 198.51C150.874 198.984 151.453 199.221 152.178 199.221C152.788 199.221 153.363 199.018 153.9 198.612V199.679ZM158.521 200.164C157.487 200.164 156.66 199.838 156.04 199.187C155.425 198.53 155.117 197.662 155.117 196.582C155.117 195.406 155.438 194.488 156.081 193.827C156.724 193.166 157.592 192.836 158.686 192.836C159.729 192.836 160.543 193.157 161.126 193.8C161.714 194.442 162.008 195.333 162.008 196.473C162.008 197.589 161.691 198.485 161.058 199.159C160.429 199.829 159.583 200.164 158.521 200.164ZM158.604 193.779C157.883 193.779 157.314 194.025 156.895 194.518C156.475 195.005 156.266 195.68 156.266 196.541C156.266 197.37 156.478 198.024 156.901 198.503C157.325 198.981 157.893 199.221 158.604 199.221C159.328 199.221 159.884 198.986 160.271 198.517C160.663 198.047 160.859 197.38 160.859 196.514C160.859 195.639 160.663 194.964 160.271 194.49C159.884 194.016 159.328 193.779 158.604 193.779ZM167.449 194.135C167.253 193.984 166.971 193.909 166.602 193.909C166.123 193.909 165.722 194.135 165.398 194.586C165.079 195.037 164.92 195.652 164.92 196.432V200H163.799V193H164.92V194.442H164.947C165.107 193.95 165.351 193.567 165.679 193.294C166.007 193.016 166.374 192.877 166.779 192.877C167.071 192.877 167.294 192.909 167.449 192.973V194.135ZM172.316 194.135C172.12 193.984 171.838 193.909 171.469 193.909C170.99 193.909 170.589 194.135 170.266 194.586C169.947 195.037 169.787 195.652 169.787 196.432V200H168.666V193H169.787V194.442H169.814C169.974 193.95 170.218 193.567 170.546 193.294C170.874 193.016 171.241 192.877 171.646 192.877C171.938 192.877 172.161 192.909 172.316 192.973V194.135ZM179.159 196.78H174.217C174.235 197.56 174.445 198.161 174.846 198.585C175.247 199.009 175.798 199.221 176.5 199.221C177.288 199.221 178.013 198.961 178.674 198.441V199.494C178.059 199.941 177.245 200.164 176.233 200.164C175.244 200.164 174.467 199.847 173.902 199.214C173.337 198.576 173.055 197.68 173.055 196.527C173.055 195.438 173.362 194.552 173.978 193.868C174.597 193.18 175.365 192.836 176.281 192.836C177.197 192.836 177.906 193.132 178.407 193.725C178.909 194.317 179.159 195.14 179.159 196.192V196.78ZM178.011 195.83C178.006 195.183 177.849 194.679 177.539 194.319C177.234 193.959 176.808 193.779 176.261 193.779C175.732 193.779 175.283 193.968 174.914 194.347C174.545 194.725 174.317 195.219 174.23 195.83H178.011ZM185.633 199.679C185.095 200.002 184.457 200.164 183.719 200.164C182.721 200.164 181.914 199.84 181.299 199.193C180.688 198.542 180.383 197.699 180.383 196.664C180.383 195.511 180.713 194.586 181.374 193.889C182.035 193.187 182.917 192.836 184.02 192.836C184.635 192.836 185.177 192.95 185.646 193.178V194.326C185.127 193.962 184.571 193.779 183.979 193.779C183.263 193.779 182.675 194.037 182.215 194.552C181.759 195.062 181.531 195.734 181.531 196.568C181.531 197.389 181.745 198.036 182.174 198.51C182.607 198.984 183.186 199.221 183.91 199.221C184.521 199.221 185.095 199.018 185.633 198.612V199.679ZM190.575 199.932C190.311 200.077 189.962 200.15 189.529 200.15C188.303 200.15 187.69 199.467 187.69 198.1V193.957H186.487V193H187.69V191.291L188.812 190.929V193H190.575V193.957H188.812V197.901C188.812 198.371 188.891 198.706 189.051 198.906C189.21 199.107 189.475 199.207 189.844 199.207C190.126 199.207 190.37 199.13 190.575 198.975V199.932ZM199.161 199.932C198.897 200.077 198.548 200.15 198.115 200.15C196.889 200.15 196.276 199.467 196.276 198.1V193.957H195.073V193H196.276V191.291L197.397 190.929V193H199.161V193.957H197.397V197.901C197.397 198.371 197.477 198.706 197.637 198.906C197.796 199.107 198.061 199.207 198.43 199.207C198.712 199.207 198.956 199.13 199.161 198.975V199.932ZM206.469 200H205.348V195.967C205.348 194.508 204.805 193.779 203.721 193.779C203.174 193.779 202.714 193.991 202.34 194.415C201.966 194.834 201.779 195.374 201.779 196.035V200H200.658V189.637H201.779V194.162H201.807C202.344 193.278 203.11 192.836 204.104 192.836C205.68 192.836 206.469 193.786 206.469 195.687V200ZM214.214 196.78H209.271C209.29 197.56 209.499 198.161 209.9 198.585C210.301 199.009 210.853 199.221 211.555 199.221C212.343 199.221 213.068 198.961 213.729 198.441V199.494C213.113 199.941 212.3 200.164 211.288 200.164C210.299 200.164 209.522 199.847 208.957 199.214C208.392 198.576 208.109 197.68 208.109 196.527C208.109 195.438 208.417 194.552 209.032 193.868C209.652 193.18 210.42 192.836 211.336 192.836C212.252 192.836 212.961 193.132 213.462 193.725C213.963 194.317 214.214 195.14 214.214 196.192V196.78ZM213.065 195.83C213.061 195.183 212.904 194.679 212.594 194.319C212.288 193.959 211.862 193.779 211.315 193.779C210.787 193.779 210.338 193.968 209.969 194.347C209.6 194.725 209.372 195.219 209.285 195.83H213.065ZM225.384 196.78H220.441C220.46 197.56 220.669 198.161 221.07 198.585C221.471 199.009 222.023 199.221 222.725 199.221C223.513 199.221 224.238 198.961 224.898 198.441V199.494C224.283 199.941 223.47 200.164 222.458 200.164C221.469 200.164 220.692 199.847 220.127 199.214C219.562 198.576 219.279 197.68 219.279 196.527C219.279 195.438 219.587 194.552 220.202 193.868C220.822 193.18 221.59 192.836 222.506 192.836C223.422 192.836 224.131 193.132 224.632 193.725C225.133 194.317 225.384 195.14 225.384 196.192V196.78ZM224.235 195.83C224.231 195.183 224.074 194.679 223.764 194.319C223.458 193.959 223.032 193.779 222.485 193.779C221.957 193.779 221.508 193.968 221.139 194.347C220.77 194.725 220.542 195.219 220.455 195.83H224.235ZM232.199 193L229.848 196.541L232.158 200H230.853L229.479 197.73C229.392 197.589 229.289 197.411 229.171 197.197H229.144C229.121 197.238 229.014 197.416 228.822 197.73L227.421 200H226.129L228.515 196.568L226.231 193H227.537L228.891 195.393C228.991 195.57 229.089 195.753 229.185 195.939H229.212L230.962 193H232.199ZM236.759 199.932C236.494 200.077 236.146 200.15 235.713 200.15C234.487 200.15 233.874 199.467 233.874 198.1V193.957H232.671V193H233.874V191.291L234.995 190.929V193H236.759V193.957H234.995V197.901C234.995 198.371 235.075 198.706 235.234 198.906C235.394 199.107 235.658 199.207 236.027 199.207C236.31 199.207 236.554 199.13 236.759 198.975V199.932ZM241.906 194.135C241.71 193.984 241.428 193.909 241.059 193.909C240.58 193.909 240.179 194.135 239.855 194.586C239.536 195.037 239.377 195.652 239.377 196.432V200H238.256V193H239.377V194.442H239.404C239.564 193.95 239.808 193.567 240.136 193.294C240.464 193.016 240.831 192.877 241.236 192.877C241.528 192.877 241.751 192.909 241.906 192.973V194.135ZM248.134 200H247.013V198.906H246.985C246.498 199.745 245.78 200.164 244.832 200.164C244.135 200.164 243.588 199.979 243.191 199.61C242.799 199.241 242.604 198.751 242.604 198.141C242.604 196.833 243.374 196.072 244.914 195.857L247.013 195.563C247.013 194.374 246.532 193.779 245.57 193.779C244.727 193.779 243.966 194.066 243.287 194.641V193.492C243.975 193.055 244.768 192.836 245.666 192.836C247.311 192.836 248.134 193.706 248.134 195.447V200ZM247.013 196.459L245.324 196.691C244.805 196.764 244.413 196.894 244.148 197.081C243.884 197.263 243.752 197.589 243.752 198.059C243.752 198.4 243.873 198.681 244.114 198.899C244.36 199.114 244.686 199.221 245.092 199.221C245.648 199.221 246.106 199.027 246.466 198.64C246.83 198.248 247.013 197.753 247.013 197.156V196.459ZM255.018 199.679C254.48 200.002 253.842 200.164 253.104 200.164C252.105 200.164 251.299 199.84 250.684 199.193C250.073 198.542 249.768 197.699 249.768 196.664C249.768 195.511 250.098 194.586 250.759 193.889C251.42 193.187 252.301 192.836 253.404 192.836C254.02 192.836 254.562 192.95 255.031 193.178V194.326C254.512 193.962 253.956 193.779 253.363 193.779C252.648 193.779 252.06 194.037 251.6 194.552C251.144 195.062 250.916 195.734 250.916 196.568C250.916 197.389 251.13 198.036 251.559 198.51C251.992 198.984 252.57 199.221 253.295 199.221C253.906 199.221 254.48 199.018 255.018 198.612V199.679ZM259.96 199.932C259.696 200.077 259.347 200.15 258.914 200.15C257.688 200.15 257.075 199.467 257.075 198.1V193.957H255.872V193H257.075V191.291L258.196 190.929V193H259.96V193.957H258.196V197.901C258.196 198.371 258.276 198.706 258.436 198.906C258.595 199.107 258.859 199.207 259.229 199.207C259.511 199.207 259.755 199.13 259.96 198.975V199.932ZM267.083 196.78H262.141C262.159 197.56 262.368 198.161 262.77 198.585C263.171 199.009 263.722 199.221 264.424 199.221C265.212 199.221 265.937 198.961 266.598 198.441V199.494C265.982 199.941 265.169 200.164 264.157 200.164C263.168 200.164 262.391 199.847 261.826 199.214C261.261 198.576 260.979 197.68 260.979 196.527C260.979 195.438 261.286 194.552 261.901 193.868C262.521 193.18 263.289 192.836 264.205 192.836C265.121 192.836 265.83 193.132 266.331 193.725C266.832 194.317 267.083 195.14 267.083 196.192V196.78ZM265.935 195.83C265.93 195.183 265.773 194.679 265.463 194.319C265.158 193.959 264.731 193.779 264.185 193.779C263.656 193.779 263.207 193.968 262.838 194.347C262.469 194.725 262.241 195.219 262.154 195.83H265.935ZM274.76 200H273.639V198.811H273.611C273.092 199.713 272.29 200.164 271.205 200.164C270.326 200.164 269.621 199.852 269.093 199.228C268.569 198.599 268.307 197.744 268.307 196.664C268.307 195.507 268.598 194.579 269.182 193.882C269.765 193.185 270.542 192.836 271.513 192.836C272.474 192.836 273.174 193.214 273.611 193.971H273.639V189.637H274.76V200ZM273.639 196.835V195.803C273.639 195.238 273.452 194.759 273.078 194.367C272.704 193.975 272.23 193.779 271.656 193.779C270.973 193.779 270.435 194.03 270.043 194.531C269.651 195.033 269.455 195.725 269.455 196.609C269.455 197.416 269.642 198.054 270.016 198.523C270.394 198.988 270.9 199.221 271.533 199.221C272.158 199.221 272.663 198.995 273.051 198.544C273.443 198.093 273.639 197.523 273.639 196.835ZM286.846 200H285.725V198.811H285.697C285.178 199.713 284.376 200.164 283.291 200.164C282.411 200.164 281.707 199.852 281.179 199.228C280.655 198.599 280.393 197.744 280.393 196.664C280.393 195.507 280.684 194.579 281.268 193.882C281.851 193.185 282.628 192.836 283.599 192.836C284.56 192.836 285.26 193.214 285.697 193.971H285.725V189.637H286.846V200ZM285.725 196.835V195.803C285.725 195.238 285.538 194.759 285.164 194.367C284.79 193.975 284.316 193.779 283.742 193.779C283.059 193.779 282.521 194.03 282.129 194.531C281.737 195.033 281.541 195.725 281.541 196.609C281.541 197.416 281.728 198.054 282.102 198.523C282.48 198.988 282.986 199.221 283.619 199.221C284.243 199.221 284.749 198.995 285.137 198.544C285.529 198.093 285.725 197.523 285.725 196.835ZM294.126 200H293.005V198.906H292.978C292.49 199.745 291.772 200.164 290.824 200.164C290.127 200.164 289.58 199.979 289.184 199.61C288.792 199.241 288.596 198.751 288.596 198.141C288.596 196.833 289.366 196.072 290.906 195.857L293.005 195.563C293.005 194.374 292.524 193.779 291.562 193.779C290.719 193.779 289.958 194.066 289.279 194.641V193.492C289.967 193.055 290.76 192.836 291.658 192.836C293.303 192.836 294.126 193.706 294.126 195.447V200ZM293.005 196.459L291.316 196.691C290.797 196.764 290.405 196.894 290.141 197.081C289.876 197.263 289.744 197.589 289.744 198.059C289.744 198.4 289.865 198.681 290.106 198.899C290.353 199.114 290.678 199.221 291.084 199.221C291.64 199.221 292.098 199.027 292.458 198.64C292.823 198.248 293.005 197.753 293.005 197.156V196.459ZM299.485 199.932C299.221 200.077 298.872 200.15 298.439 200.15C297.214 200.15 296.601 199.467 296.601 198.1V193.957H295.397V193H296.601V191.291L297.722 190.929V193H299.485V193.957H297.722V197.901C297.722 198.371 297.801 198.706 297.961 198.906C298.12 199.107 298.385 199.207 298.754 199.207C299.036 199.207 299.28 199.13 299.485 198.975V199.932ZM305.993 200H304.872V198.906H304.845C304.357 199.745 303.639 200.164 302.691 200.164C301.994 200.164 301.447 199.979 301.051 199.61C300.659 199.241 300.463 198.751 300.463 198.141C300.463 196.833 301.233 196.072 302.773 195.857L304.872 195.563C304.872 194.374 304.391 193.779 303.43 193.779C302.587 193.779 301.826 194.066 301.146 194.641V193.492C301.835 193.055 302.628 192.836 303.525 192.836C305.171 192.836 305.993 193.706 305.993 195.447V200ZM304.872 196.459L303.184 196.691C302.664 196.764 302.272 196.894 302.008 197.081C301.743 197.263 301.611 197.589 301.611 198.059C301.611 198.4 301.732 198.681 301.974 198.899C302.22 199.114 302.546 199.221 302.951 199.221C303.507 199.221 303.965 199.027 304.325 198.64C304.69 198.248 304.872 197.753 304.872 197.156V196.459ZM315.406 190.621C315.188 190.498 314.939 190.437 314.661 190.437C313.877 190.437 313.485 190.931 313.485 191.92V193H315.126V193.957H313.485V200H312.371V193.957H311.175V193H312.371V191.865C312.371 191.132 312.583 190.553 313.007 190.129C313.431 189.701 313.959 189.486 314.593 189.486C314.935 189.486 315.206 189.527 315.406 189.609V190.621ZM319.262 200.164C318.227 200.164 317.4 199.838 316.78 199.187C316.165 198.53 315.857 197.662 315.857 196.582C315.857 195.406 316.179 194.488 316.821 193.827C317.464 193.166 318.332 192.836 319.426 192.836C320.469 192.836 321.283 193.157 321.866 193.8C322.454 194.442 322.748 195.333 322.748 196.473C322.748 197.589 322.431 198.485 321.798 199.159C321.169 199.829 320.324 200.164 319.262 200.164ZM319.344 193.779C318.624 193.779 318.054 194.025 317.635 194.518C317.215 195.005 317.006 195.68 317.006 196.541C317.006 197.37 317.218 198.024 317.642 198.503C318.065 198.981 318.633 199.221 319.344 199.221C320.068 199.221 320.624 198.986 321.012 198.517C321.404 198.047 321.6 197.38 321.6 196.514C321.6 195.639 321.404 194.964 321.012 194.49C320.624 194.016 320.068 193.779 319.344 193.779ZM328.189 194.135C327.993 193.984 327.711 193.909 327.342 193.909C326.863 193.909 326.462 194.135 326.139 194.586C325.82 195.037 325.66 195.652 325.66 196.432V200H324.539V193H325.66V194.442H325.688C325.847 193.95 326.091 193.567 326.419 193.294C326.747 193.016 327.114 192.877 327.52 192.877C327.811 192.877 328.035 192.909 328.189 192.973V194.135ZM343.188 200H342.066V195.98C342.066 195.206 341.946 194.645 341.704 194.299C341.467 193.952 341.066 193.779 340.501 193.779C340.022 193.779 339.615 193.998 339.277 194.436C338.945 194.873 338.778 195.397 338.778 196.008V200H337.657V195.844C337.657 194.467 337.126 193.779 336.064 193.779C335.572 193.779 335.167 193.987 334.848 194.401C334.529 194.812 334.369 195.347 334.369 196.008V200H333.248V193H334.369V194.107H334.396C334.893 193.26 335.618 192.836 336.57 192.836C337.049 192.836 337.466 192.97 337.821 193.239C338.177 193.504 338.421 193.852 338.553 194.285C339.072 193.319 339.847 192.836 340.877 192.836C342.417 192.836 343.188 193.786 343.188 195.687V200ZM348.232 200.164C347.198 200.164 346.371 199.838 345.751 199.187C345.136 198.53 344.828 197.662 344.828 196.582C344.828 195.406 345.149 194.488 345.792 193.827C346.435 193.166 347.303 192.836 348.396 192.836C349.44 192.836 350.254 193.157 350.837 193.8C351.425 194.442 351.719 195.333 351.719 196.473C351.719 197.589 351.402 198.485 350.769 199.159C350.14 199.829 349.294 200.164 348.232 200.164ZM348.314 193.779C347.594 193.779 347.025 194.025 346.605 194.518C346.186 195.005 345.977 195.68 345.977 196.541C345.977 197.37 346.188 198.024 346.612 198.503C347.036 198.981 347.604 199.221 348.314 199.221C349.039 199.221 349.595 198.986 349.982 198.517C350.374 198.047 350.57 197.38 350.57 196.514C350.57 195.639 350.374 194.964 349.982 194.49C349.595 194.016 349.039 193.779 348.314 193.779ZM359.484 200H358.363V198.811H358.336C357.816 199.713 357.014 200.164 355.93 200.164C355.05 200.164 354.346 199.852 353.817 199.228C353.293 198.599 353.031 197.744 353.031 196.664C353.031 195.507 353.323 194.579 353.906 193.882C354.49 193.185 355.267 192.836 356.237 192.836C357.199 192.836 357.898 193.214 358.336 193.971H358.363V189.637H359.484V200ZM358.363 196.835V195.803C358.363 195.238 358.176 194.759 357.803 194.367C357.429 193.975 356.955 193.779 356.381 193.779C355.697 193.779 355.16 194.03 354.768 194.531C354.376 195.033 354.18 195.725 354.18 196.609C354.18 197.416 354.367 198.054 354.74 198.523C355.118 198.988 355.624 199.221 356.258 199.221C356.882 199.221 357.388 198.995 357.775 198.544C358.167 198.093 358.363 197.523 358.363 196.835ZM367.38 196.78H362.438C362.456 197.56 362.665 198.161 363.066 198.585C363.467 199.009 364.019 199.221 364.721 199.221C365.509 199.221 366.234 198.961 366.895 198.441V199.494C366.279 199.941 365.466 200.164 364.454 200.164C363.465 200.164 362.688 199.847 362.123 199.214C361.558 198.576 361.275 197.68 361.275 196.527C361.275 195.438 361.583 194.552 362.198 193.868C362.818 193.18 363.586 192.836 364.502 192.836C365.418 192.836 366.127 193.132 366.628 193.725C367.129 194.317 367.38 195.14 367.38 196.192V196.78ZM366.231 195.83C366.227 195.183 366.07 194.679 365.76 194.319C365.454 193.959 365.028 193.779 364.481 193.779C363.953 193.779 363.504 193.968 363.135 194.347C362.766 194.725 362.538 195.219 362.451 195.83H366.231ZM370.203 200H369.082V189.637H370.203V200ZM379.562 199.932C379.297 200.077 378.949 200.15 378.516 200.15C377.29 200.15 376.677 199.467 376.677 198.1V193.957H375.474V193H376.677V191.291L377.798 190.929V193H379.562V193.957H377.798V197.901C377.798 198.371 377.878 198.706 378.037 198.906C378.197 199.107 378.461 199.207 378.83 199.207C379.113 199.207 379.356 199.13 379.562 198.975V199.932ZM384.709 194.135C384.513 193.984 384.23 193.909 383.861 193.909C383.383 193.909 382.982 194.135 382.658 194.586C382.339 195.037 382.18 195.652 382.18 196.432V200H381.059V193H382.18V194.442H382.207C382.367 193.95 382.61 193.567 382.938 193.294C383.267 193.016 383.633 192.877 384.039 192.877C384.331 192.877 384.554 192.909 384.709 192.973V194.135ZM390.937 200H389.815V198.906H389.788C389.3 199.745 388.583 200.164 387.635 200.164C386.938 200.164 386.391 199.979 385.994 199.61C385.602 199.241 385.406 198.751 385.406 198.141C385.406 196.833 386.176 196.072 387.717 195.857L389.815 195.563C389.815 194.374 389.335 193.779 388.373 193.779C387.53 193.779 386.769 194.066 386.09 194.641V193.492C386.778 193.055 387.571 192.836 388.469 192.836C390.114 192.836 390.937 193.706 390.937 195.447V200ZM389.815 196.459L388.127 196.691C387.607 196.764 387.215 196.894 386.951 197.081C386.687 197.263 386.555 197.589 386.555 198.059C386.555 198.4 386.675 198.681 386.917 198.899C387.163 199.114 387.489 199.221 387.895 199.221C388.451 199.221 388.909 199.027 389.269 198.64C389.633 198.248 389.815 197.753 389.815 197.156V196.459ZM393.623 191.223C393.423 191.223 393.252 191.154 393.11 191.018C392.969 190.881 392.898 190.708 392.898 190.498C392.898 190.288 392.969 190.115 393.11 189.979C393.252 189.837 393.423 189.767 393.623 189.767C393.828 189.767 394.001 189.837 394.143 189.979C394.288 190.115 394.361 190.288 394.361 190.498C394.361 190.699 394.288 190.869 394.143 191.011C394.001 191.152 393.828 191.223 393.623 191.223ZM394.17 200H393.049V193H394.17V200ZM402.25 200H401.129V196.008C401.129 194.522 400.587 193.779 399.502 193.779C398.941 193.779 398.477 193.991 398.107 194.415C397.743 194.834 397.561 195.365 397.561 196.008V200H396.439V193H397.561V194.162H397.588C398.117 193.278 398.882 192.836 399.885 192.836C400.65 192.836 401.236 193.084 401.642 193.581C402.047 194.073 402.25 194.786 402.25 195.721V200ZM404.943 191.223C404.743 191.223 404.572 191.154 404.431 191.018C404.289 190.881 404.219 190.708 404.219 190.498C404.219 190.288 404.289 190.115 404.431 189.979C404.572 189.837 404.743 189.767 404.943 189.767C405.148 189.767 405.322 189.837 405.463 189.979C405.609 190.115 405.682 190.288 405.682 190.498C405.682 190.699 405.609 190.869 405.463 191.011C405.322 191.152 405.148 191.223 404.943 191.223ZM405.49 200H404.369V193H405.49V200ZM413.57 200H412.449V196.008C412.449 194.522 411.907 193.779 410.822 193.779C410.262 193.779 409.797 193.991 409.428 194.415C409.063 194.834 408.881 195.365 408.881 196.008V200H407.76V193H408.881V194.162H408.908C409.437 193.278 410.202 192.836 411.205 192.836C411.971 192.836 412.556 193.084 412.962 193.581C413.368 194.073 413.57 194.786 413.57 195.721V200ZM421.664 199.439C421.664 202.01 420.434 203.295 417.973 203.295C417.107 203.295 416.35 203.131 415.703 202.803V201.682C416.492 202.119 417.243 202.338 417.959 202.338C419.682 202.338 420.543 201.422 420.543 199.59V198.824H420.516C419.982 199.717 419.18 200.164 418.109 200.164C417.239 200.164 416.537 199.854 416.004 199.234C415.475 198.61 415.211 197.774 415.211 196.726C415.211 195.536 415.496 194.59 416.065 193.889C416.64 193.187 417.424 192.836 418.417 192.836C419.36 192.836 420.06 193.214 420.516 193.971H420.543V193H421.664V199.439ZM420.543 196.835V195.803C420.543 195.247 420.354 194.771 419.976 194.374C419.602 193.978 419.135 193.779 418.574 193.779C417.882 193.779 417.339 194.032 416.947 194.538C416.555 195.039 416.359 195.743 416.359 196.65C416.359 197.43 416.546 198.054 416.92 198.523C417.298 198.988 417.797 199.221 418.417 199.221C419.046 199.221 419.556 198.997 419.948 198.551C420.345 198.104 420.543 197.532 420.543 196.835ZM424.323 200.15C424.114 200.15 423.934 200.075 423.783 199.925C423.637 199.774 423.564 199.594 423.564 199.385C423.564 199.175 423.637 198.995 423.783 198.845C423.934 198.69 424.114 198.612 424.323 198.612C424.537 198.612 424.72 198.69 424.87 198.845C425.021 198.995 425.096 199.175 425.096 199.385C425.096 199.594 425.021 199.774 424.87 199.925C424.72 200.075 424.537 200.15 424.323 200.15Z" fill="#323130"/>
<circle opacity="0.1" cx="250" cy="50" r="50" fill="url(#paint0_linear_968_20229)"/>
<path d="M269.602 68.0615C269.825 68.4284 269.993 68.8032 270.104 69.186C270.216 69.5688 270.272 69.9756 270.272 70.4062C270.272 71.0443 270.152 71.6424 269.913 72.2007C269.674 72.759 269.347 73.2454 268.932 73.6602C268.517 74.0749 268.031 74.4019 267.473 74.6411C266.914 74.8804 266.316 75 265.678 75H233.594C232.956 75 232.358 74.8804 231.799 74.6411C231.241 74.4019 230.755 74.0749 230.34 73.6602C229.925 73.2454 229.598 72.759 229.359 72.2007C229.12 71.6424 229 71.0443 229 70.4062C229 69.9756 229.048 69.5688 229.144 69.186C229.255 68.8032 229.423 68.4284 229.646 68.0615L243.26 44.3271C243.419 44.1038 243.499 43.8327 243.499 43.5137V29.0625H240.437V26H258.812V29.0625H255.749V43.5137C255.749 43.8167 255.829 44.0959 255.988 44.3511L269.602 68.0615ZM246.562 43.5137C246.562 44.359 246.346 45.1486 245.916 45.8823L237.996 59.6875H261.252L253.333 45.8823C252.902 45.1486 252.687 44.359 252.687 43.5137V29.0625H246.562V43.5137ZM265.678 71.9375C266.093 71.9375 266.444 71.786 266.731 71.4829C267.034 71.1799 267.186 70.821 267.186 70.4062C267.186 70.2467 267.162 70.1112 267.114 69.9995C267.082 69.8719 267.026 69.7443 266.946 69.6167L263.022 62.75H236.226L232.278 69.6167C232.134 69.856 232.062 70.1191 232.062 70.4062C232.062 70.821 232.206 71.1799 232.493 71.4829C232.796 71.786 233.163 71.9375 233.594 71.9375H265.678Z" fill="#68DAC6"/>
<circle opacity="0.1" cx="450" cy="50" r="50" fill="url(#paint1_linear_968_20229)"/>
<path d="M456.75 35C457.031 35 457.286 35.0615 457.515 35.1846L477 44.9141V48.5C476.543 48.5 476.147 48.667 475.813 49.001C475.479 49.335 475.312 49.7305 475.312 50.1875V53.5625C475.312 55.1973 474.996 56.7354 474.363 58.1768C473.748 59.6006 472.904 60.8486 471.832 61.9209C470.777 62.9756 469.529 63.8193 468.088 64.4521C466.664 65.0674 465.135 65.375 463.5 65.375C461.865 65.375 460.327 65.0674 458.886 64.4521C457.462 63.8193 456.214 62.9756 455.142 61.9209C454.087 60.8486 453.243 59.6006 452.61 58.1768C451.995 56.7354 451.688 55.1973 451.688 53.5625C451.688 53.1055 451.521 52.71 451.187 52.376C450.853 52.042 450.457 51.875 450 51.875C449.543 51.875 449.147 52.042 448.813 52.376C448.479 52.71 448.312 53.1055 448.312 53.5625C448.312 55.1973 447.996 56.7354 447.363 58.1768C446.748 59.6006 445.904 60.8486 444.832 61.9209C443.777 62.9756 442.529 63.8193 441.088 64.4521C439.664 65.0674 438.135 65.375 436.5 65.375C434.865 65.375 433.327 65.0674 431.886 64.4521C430.462 63.8193 429.214 62.9756 428.142 61.9209C427.087 60.8486 426.243 59.6006 425.61 58.1768C424.995 56.7354 424.688 55.1973 424.688 53.5625V50.1875C424.688 49.7305 424.521 49.335 424.187 49.001C423.853 48.667 423.457 48.5 423 48.5V44.9141L442.485 35.1846C442.714 35.0615 442.969 35 443.25 35C443.707 35 444.103 35.167 444.437 35.501C444.612 35.6768 444.823 35.8789 445.069 36.1074C445.333 36.3184 445.579 36.5469 445.808 36.793C446.036 37.0391 446.229 37.2939 446.388 37.5576C446.546 37.8213 446.625 38.0938 446.625 38.375C446.625 38.832 446.458 39.2275 446.124 39.5615C445.79 39.8955 445.395 40.0625 444.938 40.0625C444.498 40.0625 444.12 39.9219 443.804 39.6406C443.505 39.3418 443.206 39.043 442.907 38.7441L430.146 45.125H443.25C443.918 45.125 444.489 45.2129 444.964 45.3887C445.456 45.5469 445.887 45.749 446.256 45.9951C446.643 46.2412 446.985 46.5137 447.284 46.8125C447.583 47.1113 447.864 47.3838 448.128 47.6299C448.409 47.876 448.699 48.0869 448.998 48.2627C449.297 48.4209 449.631 48.5 450 48.5C450.369 48.5 450.703 48.4209 451.002 48.2627C451.301 48.0869 451.582 47.876 451.846 47.6299C452.127 47.3838 452.417 47.1113 452.716 46.8125C453.015 46.5137 453.349 46.2412 453.718 45.9951C454.104 45.749 454.535 45.5469 455.01 45.3887C455.502 45.2129 456.082 45.125 456.75 45.125H469.854L457.093 38.7441C456.794 39.043 456.486 39.3418 456.17 39.6406C455.871 39.9219 455.502 40.0625 455.062 40.0625C454.605 40.0625 454.21 39.8955 453.876 39.5615C453.542 39.2275 453.375 38.832 453.375 38.375C453.375 38.0938 453.454 37.8213 453.612 37.5576C453.771 37.2939 453.964 37.0391 454.192 36.793C454.421 36.5469 454.658 36.3184 454.904 36.1074C455.168 35.8789 455.388 35.6768 455.563 35.501C455.897 35.167 456.293 35 456.75 35ZM444.938 51.875C444.938 51.418 444.85 50.9873 444.674 50.583C444.498 50.1611 444.252 49.8008 443.936 49.502C443.637 49.1855 443.276 48.9395 442.854 48.7637C442.45 48.5879 442.02 48.5 441.562 48.5H429.75C429.293 48.5 428.897 48.667 428.563 49.001C428.229 49.335 428.062 49.7305 428.062 50.1875V53.5625C428.062 54.7227 428.282 55.8213 428.722 56.8584C429.161 57.8779 429.759 58.7744 430.515 59.5479C431.288 60.3037 432.185 60.9014 433.204 61.3408C434.241 61.7803 435.34 62 436.5 62C437.66 62 438.75 61.7803 439.77 61.3408C440.789 60.9014 441.677 60.3037 442.433 59.5479C443.206 58.7744 443.812 57.8779 444.252 56.8584C444.709 55.8213 444.938 54.7227 444.938 53.5625V51.875ZM463.5 62C464.66 62 465.75 61.7803 466.77 61.3408C467.789 60.9014 468.677 60.3037 469.433 59.5479C470.206 58.7744 470.812 57.8779 471.252 56.8584C471.709 55.8213 471.938 54.7227 471.938 53.5625C471.938 53.1758 471.929 52.7627 471.911 52.3232C471.894 51.8838 471.885 51.4443 471.885 51.0049C471.885 50.5654 471.902 50.1348 471.938 49.7129C471.99 49.2734 472.087 48.8691 472.228 48.5H458.438C457.98 48.5 457.541 48.5879 457.119 48.7637C456.715 48.9395 456.354 49.1855 456.038 49.502C455.739 49.8008 455.502 50.1611 455.326 50.583C455.15 50.9873 455.062 51.418 455.062 51.875V53.5625C455.062 54.7227 455.282 55.8213 455.722 56.8584C456.161 57.8779 456.759 58.7744 457.515 59.5479C458.288 60.3037 459.185 60.9014 460.204 61.3408C461.241 61.7803 462.34 62 463.5 62Z" fill="#68DAC6"/>
<circle opacity="0.1" cx="50" cy="50" r="50" fill="url(#paint2_linear_968_20229)"/>
<path d="M63.125 38.4375C63.125 37.9805 63.292 37.585 63.626 37.251C63.96 36.917 64.3555 36.75 64.8125 36.75C65.2695 36.75 65.665 36.917 65.999 37.251C66.333 37.585 66.5 37.9805 66.5 38.4375C66.5 38.8945 66.333 39.29 65.999 39.624C65.665 39.958 65.2695 40.125 64.8125 40.125C64.3555 40.125 63.96 39.958 63.626 39.624C63.292 39.29 63.125 38.8945 63.125 38.4375ZM80 63.75V67.125H73.25V73.875H69.875V67.125H63.125V63.75H69.875V57H73.25V63.75H80ZM50.3105 55.3125L59.75 64.7256V67.125H26V30H73.25V53.625H69.875V33.375H29.375V44.4756L34.4375 39.4395L47.9375 52.9395L54.6875 46.1895L66.5 57.9756V60.375H64.1006L54.6875 50.9355L50.3105 55.3125ZM34.4375 44.1855L29.375 49.2744V63.75H53.9756L34.4375 44.1855Z" fill="#68DAC6"/>
<defs>
<linearGradient id="paint0_linear_968_20229" x1="286.364" y1="12.987" x2="219.805" y2="100" gradientUnits="userSpaceOnUse">
<stop stop-color="#25D0B1"/>
<stop offset="1" stop-color="#25D0B1" stop-opacity="0.21"/>
</linearGradient>
<linearGradient id="paint1_linear_968_20229" x1="486.364" y1="12.987" x2="419.805" y2="100" gradientUnits="userSpaceOnUse">
<stop stop-color="#25D0B1"/>
<stop offset="1" stop-color="#25D0B1" stop-opacity="0.21"/>
</linearGradient>
<linearGradient id="paint2_linear_968_20229" x1="86.3636" y1="12.987" x2="19.8052" y2="100" gradientUnits="userSpaceOnUse">
<stop stop-color="#25D0B1"/>
<stop offset="1" stop-color="#25D0B1" stop-opacity="0.21"/>
</linearGradient>
</defs>
</svg>
