<svg width="25" height="25" viewBox="0 0 25 25" fill="none" xmlns="http://www.w3.org/2000/svg">
<path d="M1.79519 1.79519H12.4725C18.3846 1.79519 23.1774 6.5879 23.1774 12.5C23.1774 18.4121 18.3847 23.2048 12.4726 23.2048H1.79519V1.79519Z" fill="#25D0B1" stroke="#25D0B1" stroke-width="3.59039"/>
<rect width="2.70009" height="5.57023" rx="1.35005" transform="matrix(0.706718 -0.707495 0.706718 0.707495 4.23242 7.48795)" fill="white"/>
<rect width="2.7001" height="5.57023" rx="1.35005" transform="matrix(0.706718 -0.707495 0.706718 0.707495 12.4561 15.7196)" fill="white"/>
<rect width="2.7001" height="5.57023" rx="1.35005" transform="matrix(0.706718 0.707495 -0.706718 0.707495 16.3945 5.57776)" fill="white"/>
<rect width="2.7001" height="5.57023" rx="1.35005" transform="matrix(0.706718 0.707495 -0.706718 0.707495 8.16992 13.8095)" fill="white"/>
<rect width="3.11291" height="3.11291" rx="1.55645" transform="matrix(0.706718 0.707495 -0.706718 0.707495 11.2617 10.4117)" fill="white"/>
</svg>
