<svg width="550" height="344" viewBox="0 0 550 344" fill="none" xmlns="http://www.w3.org/2000/svg">
<mask id="mask0_995_20374" style="mask-type:alpha" maskUnits="userSpaceOnUse" x="0" y="0" width="550" height="344">
<rect width="550" height="344" fill="#2A2A2A"/>
</mask>
<g mask="url(#mask0_995_20374)">
<g opacity="0.5">
<path fill-rule="evenodd" clip-rule="evenodd" d="M543.438 187.841L387.201 344L249.711 344L249.577 343.866L421.528 172L249.577 0.134526L249.712 6.53134e-05L387.201 7.73272e-05L543.438 156.16C552.19 164.909 552.19 179.092 543.438 187.841Z" fill="url(#paint0_linear_995_20374)"/>
<path opacity="0.4" fill-rule="evenodd" clip-rule="evenodd" d="M-122.859 156.16L33.3767 0.000244141H170.867L171.001 0.133898L-0.949509 172L171.001 343.866L170.866 344H33.3776L-122.859 187.84C-131.612 179.092 -131.612 164.908 -122.859 156.16Z" fill="url(#paint1_linear_995_20374)"/>
<path opacity="0.4" fill-rule="evenodd" clip-rule="evenodd" d="M41.293 172L213.377 0.000244141H350.867L351.001 0.133929L179.051 172L351.001 343.866L350.867 344H213.378L41.293 172Z" fill="url(#paint2_linear_995_20374)"/>
</g>
</g>
<defs>
<linearGradient id="paint0_linear_995_20374" x1="550.132" y1="160.354" x2="249.317" y2="160.354" gradientUnits="userSpaceOnUse">
<stop stop-color="#25D0B1"/>
<stop offset="1" stop-color="#25D0B1" stop-opacity="0"/>
</linearGradient>
<linearGradient id="paint1_linear_995_20374" x1="-129.554" y1="183.646" x2="240.249" y2="183.646" gradientUnits="userSpaceOnUse">
<stop stop-color="white"/>
<stop offset="0.895693" stop-color="white" stop-opacity="0"/>
</linearGradient>
<linearGradient id="paint2_linear_995_20374" x1="41.1589" y1="183.646" x2="422.389" y2="183.646" gradientUnits="userSpaceOnUse">
<stop stop-color="white"/>
<stop offset="0.895693" stop-color="white" stop-opacity="0"/>
</linearGradient>
</defs>
</svg>
