<svg width="101" height="100" viewBox="0 0 101 100" fill="none" xmlns="http://www.w3.org/2000/svg">
<circle opacity="0.1" cx="50.501" cy="50" r="50" fill="url(#paint0_linear_995_20234)"/>
<path d="M23.1477 34.9599H16.7354V31.7537H23.1477V34.9599ZM32.7662 34.9599H26.3539V31.7537H32.7662V34.9599ZM16.7354 38.1661H19.9415V44.5784H16.7354V38.1661ZM16.7354 47.7846H19.9415V54.1969H16.7354V47.7846ZM16.7354 57.4031H19.9415V63.8154H16.7354V57.4031ZM16.7354 67.4063H19.9415V73.8187H16.7354V67.4063ZM61.6217 70.6125H68.0341V73.8187H61.6217V70.6125ZM52.0032 70.6125H58.4155V73.8187H52.0032V70.6125ZM42.3847 70.6125H48.797V73.8187H42.3847V70.6125ZM32.7662 70.6125H39.1785V73.8187H32.7662V70.6125ZM23.1477 70.6125H29.56V73.8187H23.1477V70.6125ZM64.8279 63.856H68.0341V67.0216H64.8279V63.856Z" fill="#ACE4DA"/>
<path d="M70.3665 34.6391C70.3665 34.2049 70.5251 33.8292 70.8424 33.5119C71.1597 33.1946 71.5354 33.036 71.9696 33.036C72.4037 33.036 72.7795 33.1946 73.0967 33.5119C73.414 33.8292 73.5727 34.2049 73.5727 34.6391C73.5727 35.0732 73.414 35.449 73.0967 35.7662C72.7795 36.0835 72.4037 36.2422 71.9696 36.2422C71.5354 36.2422 71.1597 36.0835 70.8424 35.7662C70.5251 35.449 70.3665 35.0732 70.3665 34.6391ZM86.3973 58.6853V61.8915H79.985V68.3039H76.7788V61.8915H70.3665V58.6853H76.7788V52.273H79.985V58.6853H86.3973ZM58.1931 50.6699L67.1603 59.6121V61.8915H35.0986V26.6237H79.985V49.0668H76.7788V29.8298H38.3048V40.3751L43.1141 35.5909L55.9387 48.4156L62.3511 42.0032L73.5727 53.1998V55.4792H71.2933L62.3511 46.5119L58.1931 50.6699ZM43.1141 40.0996L38.3048 44.9339V58.6853H61.6748L43.1141 40.0996Z" fill="#68DAC6"/>
<defs>
<linearGradient id="paint0_linear_995_20234" x1="86.8646" y1="12.987" x2="20.3062" y2="100" gradientUnits="userSpaceOnUse">
<stop stop-color="#25D0B1"/>
<stop offset="1" stop-color="#25D0B1" stop-opacity="0.21"/>
</linearGradient>
</defs>
</svg>
